<svg width="40" height="30" viewBox="0 0 40 30" fill="none" xmlns="http://www.w3.org/2000/svg">
<path d="M32.0457 0.306152H7.95429C3.56816 0.306152 0 3.88574 0 8.28493V21.7143C0 26.1143 3.56816 29.6931 7.95429 29.6931H32.0457C36.4318 29.6931 40 26.1135 40 21.7143V8.28493C40 3.88574 36.4318 0.306152 32.0457 0.306152ZM38.3673 21.7151C38.3673 25.2147 35.5314 28.0613 32.0457 28.0613H7.95429C4.46857 28.0613 1.63265 25.2139 1.63265 21.7151V8.28493C1.63265 4.78615 4.46857 1.93881 7.95429 1.93881H32.0457C35.5314 1.93881 38.3673 4.78615 38.3673 8.28493V21.7151Z" fill="white"/>
<path d="M27.2326 14.7044L15.9224 8.07991C15.671 7.93297 15.3583 7.93052 15.1045 8.07583C14.8506 8.22113 14.6938 8.49134 14.6938 8.7844V22.0326C14.6938 22.3248 14.8506 22.5958 15.1036 22.7411C15.2294 22.813 15.3698 22.8489 15.5102 22.8489C15.653 22.8489 15.7951 22.8113 15.9224 22.7371L27.2326 16.1142C27.4824 15.9681 27.6367 15.6995 27.6367 15.4097C27.6367 15.1199 27.4832 14.8505 27.2326 14.7044ZM16.3265 20.6081V10.2081L25.2049 15.4089L16.3265 20.6081Z" fill="white"/>
</svg>
