<svg width="58" height="58" viewBox="0 0 58 58" fill="none" xmlns="http://www.w3.org/2000/svg">
<path d="M12.6512 11.5162L12.609 20.8912C12.6082 21.0654 12.559 21.2358 12.4667 21.3836C12.3745 21.5313 12.2429 21.6504 12.0868 21.7275C11.9307 21.8047 11.7561 21.8368 11.5828 21.8203C11.4094 21.8038 11.244 21.7394 11.1053 21.6342L10.2203 20.9635C8.86146 24.1471 8.33289 27.6234 8.68404 31.0669C9.0352 34.5105 10.2546 37.8086 12.228 40.6523L10.6885 41.7225C8.41321 38.4446 7.05807 34.6167 6.76417 30.6374C6.47027 26.658 7.24836 22.6726 9.01744 19.096C9.07872 18.9724 9.16654 18.8638 9.27463 18.778C9.38272 18.6922 9.50841 18.6314 9.64273 18.5998C9.77706 18.5682 9.9167 18.5666 10.0517 18.5952C10.1867 18.6238 10.3137 18.6818 10.4237 18.7652L10.7426 19.0067L10.7707 12.7578L4.76435 14.4805L5.71123 15.197C5.89055 15.3327 6.01512 15.5283 6.06221 15.7482C6.1093 15.9681 6.07577 16.1976 5.96775 16.3948C5.34261 17.5372 4.80369 18.7247 4.35549 19.9474L2.59498 19.3029C2.9822 18.2465 3.43267 17.2145 3.94392 16.2123L2.13736 14.8448C1.99852 14.7397 1.89169 14.5981 1.82884 14.4357C1.76598 14.2733 1.74958 14.0967 1.78148 13.9255C1.81338 13.7543 1.89232 13.5954 2.00945 13.4666C2.12657 13.3378 2.27726 13.2441 2.44463 13.1961L11.4552 10.6108C11.5951 10.5707 11.7424 10.5637 11.8855 10.5904C12.0286 10.617 12.1635 10.6766 12.2795 10.7645C12.3956 10.8523 12.4896 10.966 12.5541 11.0965C12.6186 11.227 12.6518 11.3707 12.6512 11.5162ZM3.85931 41.6084L5.53509 40.7663C3.13365 35.9991 2.25222 30.6099 3.0097 25.3259C3.16077 24.2578 3.3766 23.1999 3.65599 22.158L1.8451 21.6717C1.54608 22.7873 1.31519 23.92 1.15369 25.0637C0.34181 30.7255 1.28616 36.5002 3.85931 41.6084ZM24.5054 20.6567C23.9088 20.947 23.3415 21.2939 22.8113 21.6928L23.9387 23.191C24.3726 22.8645 24.8369 22.5806 25.3251 22.3431L24.5054 20.6567ZM18.6875 30.8749H20.5625V29.9374C20.5618 27.8469 21.3393 25.8311 22.7436 24.2825L21.3534 23.0246C19.6369 24.9177 18.6865 27.382 18.6875 29.9374V30.8749ZM54.3125 56.1874V47.7499H52.4375V55.2499H43.0625V43.9999H44V42.1249H42.3655C40.2383 40.9576 37.8517 40.3443 35.4253 40.3413C32.9989 40.3383 30.6108 40.9459 28.4808 42.1079L28.4492 42.1249H21.5C20.924 42.1255 20.3558 42.2587 19.8395 42.5141C19.3232 42.7695 18.8726 43.1403 18.5225 43.5977C18.1724 44.0552 17.9323 44.587 17.8207 45.1522C17.7091 45.7173 17.729 46.3005 17.8789 46.8567L14.2277 45.1835C14.3029 45.0517 14.3953 44.9304 14.5024 44.8229L16.5379 42.7873C16.7136 42.6116 16.8124 42.3734 16.8125 42.1249V29.9374C16.8173 27.2744 17.6919 24.6859 19.3031 22.5657C20.9143 20.4454 23.174 18.9095 25.7383 18.1916C25.877 18.1531 26.005 18.0833 26.1124 17.9874C26.2197 17.8916 26.3036 17.7723 26.3574 17.6388C26.4112 17.5053 26.4336 17.3613 26.4228 17.2177C26.412 17.0742 26.3683 16.9351 26.2951 16.8112L24.0804 13.0624H33.9197L31.7048 16.8112C31.6316 16.9351 31.5879 17.0742 31.5771 17.2177C31.5663 17.3613 31.5887 17.5053 31.6425 17.6388C31.6964 17.7723 31.7802 17.8916 31.8876 17.9874C31.9949 18.0833 32.1229 18.1531 32.2616 18.1916C34.826 18.9095 37.0857 20.4454 38.6969 22.5656C40.3081 24.6859 41.1827 27.2744 41.1875 29.9374V40.2499H43.0625V29.9374C43.0568 27.0714 42.1783 24.2752 40.544 21.9208C38.9097 19.5665 36.5971 17.7657 33.914 16.7582L36.3697 12.6017C36.4538 12.4593 36.4988 12.2973 36.5 12.1319C36.5012 11.9666 36.4587 11.8038 36.3768 11.6602C36.2948 11.5166 36.1763 11.3972 36.0333 11.3142C35.8903 11.2311 35.7279 11.1874 35.5625 11.1874H22.4375C22.2722 11.1874 22.1097 11.2311 21.9667 11.3142C21.8237 11.3972 21.7052 11.5166 21.6233 11.6602C21.5413 11.8038 21.4988 11.9666 21.5 12.1319C21.5013 12.2973 21.5462 12.4593 21.6303 12.6017L24.086 16.7582C21.4029 17.7657 19.0904 19.5665 17.4561 21.9208C15.8218 24.2752 14.9433 27.0714 14.9375 29.9374V41.7366L13.1765 43.4975C12.9114 43.7624 12.6894 44.0673 12.5189 44.4011L9.35482 42.952C8.42959 42.54 7.38348 42.4899 6.42314 42.8118C5.46281 43.1336 4.6581 43.8039 4.16799 44.6902C3.08986 46.6968 3.85592 49.3503 5.89908 50.3738L16.8306 55.8395C18.5237 56.6828 20.389 57.1227 22.2805 57.1249H35.5625V55.2499H22.2805C20.68 55.2479 19.1016 54.8755 17.669 54.1618L6.73802 48.6964C5.6592 48.1573 5.25302 46.6277 5.81881 45.5792C6.07902 45.1081 6.50667 44.7518 7.01708 44.581C7.52748 44.4102 8.08343 44.4372 8.57482 44.6568L19.2345 49.5397C19.3571 49.5958 19.4902 49.6249 19.625 49.6249H29.9375V47.7499H21.5C21.0027 47.7499 20.5258 47.5523 20.1742 47.2007C19.8226 46.8491 19.625 46.3722 19.625 45.8749C19.625 45.3776 19.8226 44.9007 20.1742 44.5491C20.5258 44.1974 21.0027 43.9999 21.5 43.9999H28.6871C28.8431 43.9999 28.9966 43.961 29.1337 43.8867L29.3763 43.7553C31.184 42.7689 33.2059 42.2408 35.265 42.2171C37.3242 42.1935 39.3577 42.6751 41.1875 43.6197V55.2499H37.4375V57.1249H53.375C53.6237 57.1249 53.8621 57.0261 54.0379 56.8503C54.2137 56.6745 54.3125 56.436 54.3125 56.1874ZM48.6875 51.4999C48.6875 51.129 48.5775 50.7665 48.3715 50.4582C48.1655 50.1499 47.8727 49.9095 47.53 49.7676C47.1874 49.6257 46.8104 49.5886 46.4467 49.6609C46.083 49.7333 45.7489 49.9118 45.4867 50.1741C45.2245 50.4363 45.0459 50.7704 44.9735 51.1341C44.9012 51.4978 44.9383 51.8748 45.0802 52.2174C45.2222 52.56 45.4625 52.8529 45.7708 53.0589C46.0792 53.2649 46.4417 53.3749 46.8125 53.3749C47.3096 53.3743 47.7862 53.1766 48.1377 52.8251C48.4892 52.4736 48.6869 51.997 48.6875 51.4999ZM29.9375 26.1874V29.9374C30.9321 29.9374 31.8859 30.3325 32.5892 31.0357C33.2924 31.739 33.6875 32.6928 33.6875 33.6874C33.6875 34.6819 33.2924 35.6358 32.5892 36.339C31.8859 37.0423 30.9321 37.4374 29.9375 37.4374V39.3124H28.0625V37.4374C27.0683 37.4363 26.1151 37.0408 25.4121 36.3378C24.7091 35.6348 24.3136 34.6816 24.3125 33.6874H26.1875C26.1881 34.1845 26.3858 34.6611 26.7373 35.0126C27.0888 35.3641 27.5654 35.5618 28.0625 35.5624V31.8124C27.068 31.8124 26.1141 31.4173 25.4109 30.714C24.7076 30.0108 24.3125 29.0569 24.3125 28.0624C24.3125 27.0678 24.7076 26.114 25.4109 25.4107C26.1141 24.7075 27.068 24.3124 28.0625 24.3124V22.4374H29.9375V24.3124C30.9317 24.3135 31.8849 24.709 32.5879 25.412C33.291 26.115 33.6864 27.0682 33.6875 28.0624H31.8125C31.8119 27.5653 31.6142 27.0887 31.2627 26.7372C30.9112 26.3857 30.4346 26.188 29.9375 26.1874ZM28.0625 26.1874C27.5652 26.1874 27.0883 26.3849 26.7367 26.7366C26.3851 27.0882 26.1875 27.5651 26.1875 28.0624C26.1875 28.5597 26.3851 29.0366 26.7367 29.3882C27.0883 29.7398 27.5652 29.9374 28.0625 29.9374V26.1874ZM29.9375 31.8124V35.5624C30.4348 35.5624 30.9117 35.3648 31.2633 35.0132C31.615 34.6616 31.8125 34.1847 31.8125 33.6874C31.8125 33.1901 31.615 32.7132 31.2633 32.3616C30.9117 32.0099 30.4348 31.8124 29.9375 31.8124ZM32.6716 3.00957C38.163 3.78574 43.2676 6.28057 47.2537 10.1364C51.2399 13.9923 53.9029 19.0112 54.8611 24.4738L56.7081 24.151C55.8935 19.5027 53.9226 15.134 50.9767 11.4471C48.0309 7.76031 44.2049 4.87386 39.8509 3.05356C35.4969 1.23326 30.7549 0.537611 26.0616 1.03067C21.3682 1.52373 16.8744 3.18965 12.9937 5.87504C12.7946 6.01299 12.6565 6.22268 12.6086 6.46016C12.5606 6.69763 12.6065 6.94445 12.7365 7.14887L15.866 12.0693C15.9342 12.1765 16.0234 12.2688 16.1283 12.3404C16.2332 12.4121 16.3516 12.4617 16.4762 12.4862C16.6009 12.5107 16.7292 12.5096 16.8535 12.483C16.9777 12.4564 17.0952 12.4048 17.1989 12.3314C21.449 9.31214 26.6961 8.04007 31.857 8.77778C43.007 10.3532 50.7969 20.7064 49.221 31.8565C48.9699 33.6432 48.4833 35.3888 47.774 37.0479L46.8662 36.3606C46.7274 36.2555 46.5621 36.1911 46.3887 36.1747C46.2154 36.1583 46.041 36.1905 45.8849 36.2677C45.7289 36.3448 45.5974 36.4639 45.5052 36.6116C45.413 36.7592 45.3637 36.9297 45.3629 37.1038L45.321 46.4779C45.3203 46.6235 45.3536 46.7672 45.4181 46.8977C45.4826 47.0281 45.5766 47.1418 45.6927 47.2296C45.8087 47.3175 45.9437 47.3771 46.0868 47.4037C46.2298 47.4304 46.3772 47.4234 46.5171 47.3832L55.5279 44.7986C55.6952 44.7506 55.8459 44.6569 55.963 44.5281C56.0801 44.3993 56.159 44.2404 56.1909 44.0693C56.2228 43.8981 56.2064 43.7215 56.1436 43.5591C56.0807 43.3968 55.9739 43.2551 55.8351 43.15L54.0486 41.7977C56.3631 37.2471 57.4037 32.1553 57.0603 27.0615L55.1897 27.1889C55.313 29.0185 55.2455 30.856 54.9885 32.6717C54.55 35.807 53.5458 38.8366 52.0249 41.6131C51.9168 41.8104 51.8832 42.0399 51.9303 42.2598C51.9773 42.4797 52.1019 42.6754 52.2812 42.8111L53.2085 43.5132L47.2016 45.2359L47.2296 38.9868L47.5709 39.2447C47.6809 39.3279 47.8079 39.3858 47.9428 39.4143C48.0777 39.4428 48.2173 39.4412 48.3515 39.4096C48.4858 39.378 48.6114 39.3172 48.7194 39.2315C48.8274 39.1457 48.9152 39.0373 48.9765 38.9137C50.0364 36.7756 50.7457 34.4811 51.0774 32.1179C52.7975 19.9449 44.293 8.64137 32.1193 6.92176C26.8208 6.16372 21.4268 7.34566 16.9308 10.2499L14.8106 6.91625C20.1007 3.5083 26.4419 2.12131 32.6716 3.00957Z" fill="white"/>
</svg>
