<svg width="25" height="25" viewBox="0 0 25 25" fill="none" xmlns="http://www.w3.org/2000/svg">
<path d="M4.58984 7.03125H5.56641V8.00781C5.56641 8.4123 5.89434 8.74023 6.29883 8.74023C6.70332 8.74023 7.03125 8.4123 7.03125 8.00781V7.03125H8.00781C8.4123 7.03125 8.74023 6.70332 8.74023 6.29883C8.74023 5.89434 8.4123 5.56641 8.00781 5.56641H7.03125V4.58984C7.03125 4.18535 6.70332 3.85742 6.29883 3.85742C5.89434 3.85742 5.56641 4.18535 5.56641 4.58984V5.56641H4.58984C4.18535 5.56641 3.85742 5.89434 3.85742 6.29883C3.85742 6.70332 4.18535 7.03125 4.58984 7.03125Z" fill="white"/>
<path d="M15.9668 7.03125H18.8965C19.301 7.03125 19.6289 6.70332 19.6289 6.29883C19.6289 5.89434 19.301 5.56641 18.8965 5.56641H15.9668C15.5623 5.56641 15.2344 5.89434 15.2344 6.29883C15.2344 6.70332 15.5623 7.03125 15.9668 7.03125Z" fill="white"/>
<path d="M19.1406 17.9199H15.7227C15.3182 17.9199 14.9902 18.2479 14.9902 18.6523C14.9902 19.0568 15.3182 19.3848 15.7227 19.3848H19.1406C19.5451 19.3848 19.873 19.0568 19.873 18.6523C19.873 18.2479 19.5451 17.9199 19.1406 17.9199Z" fill="white"/>
<path d="M19.1406 15.4785H15.7227C15.3182 15.4785 14.9902 15.8064 14.9902 16.2109C14.9902 16.6154 15.3182 16.9434 15.7227 16.9434H19.1406C19.5451 16.9434 19.873 16.6154 19.873 16.2109C19.873 15.8064 19.5451 15.4785 19.1406 15.4785Z" fill="white"/>
<path d="M8.03742 15.6931C7.75144 15.4071 7.28767 15.4071 7.00163 15.6931L6.29885 16.3959L5.59602 15.693C5.31003 15.407 4.84626 15.407 4.56023 15.693C4.27419 15.9791 4.27419 16.4428 4.56023 16.7288L5.26306 17.4317L4.56023 18.1345C4.27419 18.4205 4.27419 18.8843 4.56023 19.1703C4.70325 19.3133 4.8907 19.3848 5.07815 19.3848C5.2656 19.3848 5.45305 19.3133 5.59602 19.1702L6.29885 18.4675L7.00168 19.1703C7.14465 19.3133 7.3321 19.3848 7.51955 19.3848C7.707 19.3848 7.89445 19.3133 8.03742 19.1702C8.32346 18.8842 8.32346 18.4205 8.03742 18.1344L7.33464 17.4317L8.03747 16.7288C8.3235 16.4428 8.3235 15.9791 8.03742 15.6931Z" fill="white"/>
<path d="M23.7305 13.2407V2.19727C23.7305 0.985693 22.7448 0 21.5332 0H2.19727C0.985693 0 0 0.985693 0 2.19727V21.5332C0 22.7448 0.985693 23.7305 2.19727 23.7305H13.2406C14.4413 24.532 15.8828 25 17.4316 25C21.6049 25 25 21.6048 25 17.4316C25 15.8828 24.532 14.4414 23.7305 13.2407ZM22.2656 2.19727V11.6128C20.9536 10.5209 19.268 9.86328 17.4316 9.86328C15.5953 9.86328 13.9097 10.5209 12.5977 11.6128V1.46484H21.5332C21.9371 1.46484 22.2656 1.79341 22.2656 2.19727ZM2.19727 1.46484H11.1328V11.1328H1.46484V2.19727C1.46484 1.79341 1.79341 1.46484 2.19727 1.46484ZM1.46484 21.5332V12.5977H11.1328V13.2407C10.3313 14.4414 9.86328 15.8828 9.86328 17.4316C9.86328 19.268 10.5209 20.9536 11.6128 22.2656H2.19727C1.79341 22.2656 1.46484 21.9371 1.46484 21.5332ZM17.4316 23.5352C14.0662 23.5352 11.3281 20.7971 11.3281 17.4316C11.3281 14.0662 14.0662 11.3281 17.4316 11.3281C20.7971 11.3281 23.5352 14.0662 23.5352 17.4316C23.5352 20.7971 20.7971 23.5352 17.4316 23.5352Z" fill="white"/>
</svg>
