<svg width="25" height="25" viewBox="0 0 25 25" fill="none" xmlns="http://www.w3.org/2000/svg">
<g clip-path="url(#clip0)">
<path d="M21.4491 3.55091C19.1591 1.26095 16.1152 0 12.8765 0C12.8763 0 12.8756 0 12.8754 0C11.2736 0.000190735 9.7126 0.310326 8.23612 0.922012C6.75946 1.5337 5.43652 2.41814 4.30374 3.55091C2.01397 5.84068 0.753024 8.88519 0.753024 12.1235C0.753024 14.0547 1.21899 15.9739 2.1019 17.6838L0.0640898 23.5054C-0.0795336 23.9161 0.0221281 24.3624 0.329974 24.67C0.545314 24.8856 0.828746 25 1.12019 25C1.24512 25 1.37139 24.979 1.4946 24.9359L7.31621 22.8983C9.02615 23.7812 10.9453 24.2472 12.8765 24.2472C16.1148 24.2472 19.1591 22.986 21.4491 20.6963C23.7389 18.4065 25 15.362 25 12.1237C25 8.88519 23.7391 5.84068 21.4491 3.55091ZM20.4123 19.6594C18.3994 21.6724 15.723 22.7808 12.8765 22.7808C11.1351 22.7808 9.40514 22.3501 7.87354 21.5349C7.59583 21.3873 7.26757 21.3619 6.97289 21.4651L1.68381 23.3162L3.53508 18.0271C3.63827 17.732 3.61271 17.4038 3.46508 17.1263C2.65007 15.5951 2.2192 13.8651 2.2192 12.1235C2.2192 9.27696 3.32775 6.60057 5.34058 4.58775C7.35321 2.57511 10.0292 1.46656 12.8756 1.46618H12.8765C15.7232 1.46618 18.3994 2.57473 20.4123 4.58775C22.4253 6.60057 23.5338 9.27677 23.5338 12.1235C23.5338 14.9702 22.4253 17.6466 20.4123 19.6594Z" fill="white"/>
<path d="M17.3819 13.2065C16.8242 12.6488 15.9167 12.6488 15.359 13.2065L14.749 13.8164C13.2344 12.9911 12.0087 11.7655 11.1832 10.2508L11.7932 9.64088C12.3511 9.08317 12.3511 8.17565 11.7932 7.61794L10.1495 5.97419C9.59174 5.41648 8.68423 5.41648 8.12652 5.97419L6.81159 7.28912C6.05838 8.04233 6.0208 9.33723 6.70573 10.9354C7.30044 12.323 8.38878 13.8481 9.77027 15.2296C11.1518 16.6111 12.6769 17.6994 14.0645 18.2941C14.8238 18.6195 15.5144 18.7818 16.1112 18.7818C16.7706 18.7818 17.3154 18.5837 17.7108 18.1883L19.0257 16.8732V16.8734C19.2959 16.6031 19.4447 16.2439 19.4447 15.8619C19.4447 15.4797 19.2959 15.1205 19.0257 14.8504L17.3819 13.2065ZM16.6739 17.1514C16.459 17.3664 15.7979 17.4417 14.6422 16.9466C13.4219 16.4236 12.0599 15.4455 10.8071 14.1928C9.55436 12.94 8.57646 11.5782 8.05346 10.3578C7.55813 9.20219 7.63347 8.54091 7.84842 8.32595L9.13817 7.0362L10.7312 8.62941L9.96768 9.39311C9.62245 9.73834 9.5391 10.2619 9.76054 10.696C10.7644 12.6644 12.3355 14.2355 14.3038 15.2393C14.7381 15.4608 15.2617 15.3776 15.6069 15.0322L16.3705 14.2687L17.9637 15.8619L16.6739 17.1514Z" fill="white"/>
</g>
<defs>
<clipPath id="clip0">
<rect width="25" height="25" fill="white"/>
</clipPath>
</defs>
</svg>
