<svg width="25" height="25" viewBox="0 0 25 25" fill="none" xmlns="http://www.w3.org/2000/svg">
<path d="M12.5 25C9.16113 25 6.02207 23.6998 3.66113 21.3389C1.3002 18.9779 0 15.8389 0 12.5C0 9.16113 1.30024 6.02212 3.66113 3.66113C6.02202 1.30015 9.16113 0 12.5 0C15.8389 0 18.9779 1.3002 21.3389 3.66113C23.6998 6.02207 25 9.16113 25 12.5C25 15.8389 23.6998 18.9779 21.3389 21.3389C18.978 23.6999 15.8389 25 12.5 25ZM12.5 1.5625C6.46904 1.5625 1.5625 6.46904 1.5625 12.5C1.5625 18.531 6.46904 23.4375 12.5 23.4375C18.531 23.4375 23.4375 18.531 23.4375 12.5C23.4375 6.46904 18.531 1.5625 12.5 1.5625Z" fill="white"/>
<path d="M15.3449 12.5C15.995 11.9269 16.4062 11.0889 16.4062 10.1562C16.4062 8.84746 15.5971 7.72471 14.4531 7.26011V6.25C14.4531 5.81855 14.1034 5.46875 13.6719 5.46875C13.2404 5.46875 12.8906 5.81855 12.8906 6.25V7.03125H11.3281V6.25C11.3281 5.81855 10.9784 5.46875 10.5469 5.46875C10.1154 5.46875 9.76562 5.81855 9.76562 6.25V7.03125H8.20312C7.77163 7.03125 7.42188 7.38105 7.42188 7.8125C7.42188 8.24395 7.77163 8.59375 8.20312 8.59375H8.98438V12.5V16.4062H8.20312C7.77163 16.4062 7.42188 16.7561 7.42188 17.1875C7.42188 17.6189 7.77163 17.9688 8.20312 17.9688H9.76562V18.75C9.76562 19.1814 10.1154 19.5312 10.5469 19.5312C10.9784 19.5312 11.3281 19.1814 11.3281 18.75V17.9688H12.8906V18.75C12.8906 19.1814 13.2404 19.5312 13.6719 19.5312C14.1034 19.5312 14.4531 19.1814 14.4531 18.75V17.7399C15.5971 17.2753 16.4062 16.1525 16.4062 14.8438C16.4062 13.9111 15.995 13.0731 15.3449 12.5ZM10.5469 8.59375H13.2812C14.1428 8.59375 14.8438 9.29468 14.8438 10.1562C14.8438 11.0178 14.1428 11.7188 13.2812 11.7188H10.5469V8.59375ZM13.2812 16.4062H10.5469V13.2812H13.2812C14.1428 13.2812 14.8438 13.9822 14.8438 14.8438C14.8438 15.7053 14.1428 16.4062 13.2812 16.4062Z" fill="white"/>
</svg>
