<svg width="25" height="25" viewBox="0 0 25 25" fill="none" xmlns="http://www.w3.org/2000/svg">
<g clip-path="url(#clip0)">
<path d="M20.1255 23.6809C19.9302 23.6809 19.7362 23.6231 19.5698 23.5103L13.2839 19.2464L9.9124 21.6723C9.64799 21.8625 9.30717 21.9104 9.00014 21.8006C8.6935 21.6905 8.46061 21.4365 8.37749 21.1216L6.68464 14.7062L0.635885 12.3933C0.255092 12.2476 0.00254973 11.8833 -0.000221115 11.4756C-0.00299196 11.0679 0.244537 10.7002 0.623483 10.5494L23.6231 1.39768C23.7274 1.35335 23.8379 1.32775 23.9492 1.32089C23.9891 1.31851 24.0291 1.31851 24.0688 1.32076C24.2994 1.33448 24.526 1.42843 24.7028 1.6018C24.7211 1.61975 24.7385 1.63809 24.755 1.65722C24.9015 1.82452 24.982 2.02851 24.9971 2.23632C25.0008 2.28857 25.0006 2.34148 24.9959 2.39439C24.9928 2.43213 24.9874 2.46973 24.9797 2.50707L21.0975 22.8766C21.0351 23.2038 20.8124 23.4777 20.5047 23.6053C20.3826 23.656 20.2537 23.6809 20.1255 23.6809ZM13.8358 17.2292L19.4351 21.0273L22.4559 5.17751L11.5457 15.6758L13.8094 17.2114C13.8185 17.2171 13.8272 17.2232 13.8358 17.2292ZM9.17457 16.3846L9.92428 19.2254L11.5395 18.0631L9.42447 16.6283C9.32617 16.5618 9.24199 16.479 9.17457 16.3846ZM3.71218 11.4504L7.86554 13.0384C8.16308 13.1521 8.38765 13.4023 8.46893 13.7103L8.99565 15.7064C9.0198 15.4762 9.12417 15.2595 9.29372 15.0963L19.6895 5.09306L3.71218 11.4504Z" fill="white"/>
</g>
<defs>
<clipPath id="clip0">
<rect width="25" height="25" fill="white"/>
</clipPath>
</defs>
</svg>
