<svg width="108" height="75" viewBox="0 0 108 75" fill="none" xmlns="http://www.w3.org/2000/svg">
<path d="M2.45312 43.8733H0.453125V43.8835L0.45323 43.8938L2.45312 43.8733ZM8.35938 9.60767L6.80052 8.35466L6.79571 8.36069L8.35938 9.60767ZM42.5312 9.56079L40.9714 10.8126L40.9754 10.8175L42.5312 9.56079ZM48.5781 30.6077H50.5781V30.5974L50.578 30.5872L48.5781 30.6077ZM32.6875 17.0608L30.9652 18.0775L30.9725 18.0898L30.9799 18.102L32.6875 17.0608ZM18.3906 16.8733L16.691 15.8191L16.6873 15.8251L18.3906 16.8733ZM16 28.3577L14.0003 28.3217L14 28.3397V28.3577H16ZM18.25 57.3733L16.4988 58.3394L16.5055 58.3515L16.5123 58.3634L18.25 57.3733ZM35.0312 45.6077L37.0311 45.6311L37.0312 45.6194V45.6077H35.0312ZM46.5781 43.1702C46.5781 52.3699 44.6688 59.0817 41.1427 63.5951L44.2948 66.0577C48.5812 60.5711 50.5781 52.8455 50.5781 43.1702H46.5781ZM41.1427 63.5951C37.6883 68.0167 32.607 70.3264 25.5625 70.3264V74.3264C33.5805 74.3264 39.9367 71.6361 44.2948 66.0577L41.1427 63.5951ZM25.5625 70.3264C18.6081 70.3264 13.5467 68.06 10.0598 63.7152L6.9402 66.2188C11.3283 71.6866 17.6419 74.3264 25.5625 74.3264V70.3264ZM10.0598 63.7152C6.50544 59.2864 4.5442 52.7583 4.45302 43.8528L0.45323 43.8938C0.549547 53.3007 2.61956 60.8352 6.9402 66.2188L10.0598 63.7152ZM4.45312 43.8733V31.3108H0.453125V43.8733H4.45312ZM4.45312 31.3108C4.45312 22.0122 6.38016 15.2973 9.92304 10.8546L6.79571 8.36069C2.46359 13.793 0.453125 21.5469 0.453125 31.3108H4.45312ZM9.91822 10.8607C13.4392 6.48028 18.5193 4.20142 25.4688 4.20142V0.201416C17.5432 0.201416 11.2171 2.86005 6.80053 8.35467L9.91822 10.8607ZM25.4688 4.20142C32.4231 4.20142 37.4846 6.46783 40.9715 10.8126L44.091 8.30898C39.7029 2.84126 33.3894 0.201416 25.4688 0.201416V4.20142ZM40.9754 10.8175C44.5254 15.2127 46.487 21.7215 46.5782 30.6281L50.578 30.5872C50.4817 21.1813 48.4121 13.6589 44.0871 8.30412L40.9754 10.8175ZM46.5781 30.6077V43.1702H50.5781V30.6077H46.5781ZM37.0312 29.3889C37.0312 23.6394 36.2536 19.0676 34.3951 16.0196L30.9799 18.102C32.2464 20.179 33.0312 23.826 33.0312 29.3889H37.0312ZM34.4098 16.044C32.4815 12.7778 29.381 11.1702 25.4688 11.1702V15.1702C28.119 15.1702 29.831 16.1563 30.9652 18.0775L34.4098 16.044ZM25.4688 11.1702C21.6698 11.1702 18.6275 12.6969 16.691 15.8191L20.0902 17.9275C21.2162 16.1121 22.8927 15.1702 25.4688 15.1702V11.1702ZM16.6873 15.8251C14.9013 18.7273 14.096 22.9968 14.0003 28.3217L17.9997 28.3936C18.0915 23.281 18.8799 19.8943 20.0939 17.9215L16.6873 15.8251ZM14 28.3577V44.9514H18V28.3577H14ZM14 44.9514C14 50.6229 14.7524 55.1741 16.4988 58.3394L20.0012 56.4071C18.7476 54.135 18 50.405 18 44.9514H14ZM16.5123 58.3634C18.4331 61.7347 21.5713 63.4045 25.5625 63.4045V59.4045C22.8662 59.4045 21.1294 58.3869 19.9877 56.3832L16.5123 58.3634ZM25.5625 63.4045C29.4982 63.4045 32.6055 61.8005 34.4747 58.4994L30.994 56.5284C29.9258 58.4149 28.2518 59.4045 25.5625 59.4045V63.4045ZM34.4747 58.4994C36.1946 55.4622 36.9673 51.0833 37.0311 45.6311L33.0314 45.5843C32.9702 50.8195 32.2117 54.3781 30.994 56.5284L34.4747 58.4994ZM37.0312 45.6077V29.3889H33.0312V45.6077H37.0312ZM97.8438 45.7014H95.8438V47.7014H97.8438V45.7014ZM105.578 45.7014H107.578V43.7014H105.578V45.7014ZM105.578 56.6233V58.6233H107.578V56.6233H105.578ZM97.8438 56.6233V54.6233H95.8438V56.6233H97.8438ZM97.8438 71.3889V73.3889H99.8438V71.3889H97.8438ZM84.2969 71.3889H82.2969V73.3889H84.2969V71.3889ZM84.2969 56.6233H86.2969V54.6233H84.2969V56.6233ZM56.3125 56.6233L54.3176 56.7658L54.4503 58.6233H56.3125V56.6233ZM55.7031 48.092L54.0132 47.0224L53.6613 47.5783L53.7082 48.2345L55.7031 48.092ZM84.1562 3.13892V1.13892H83.0552L82.4663 2.06927L84.1562 3.13892ZM97.8438 3.13892H99.8438V1.13892H97.8438V3.13892ZM69.2031 45.7014L67.5109 44.6354L65.5795 47.7014H69.2031V45.7014ZM84.2969 45.7014V47.7014H86.2969V45.7014H84.2969ZM84.2969 21.6077H86.2969V14.1257L82.5636 20.6097L84.2969 21.6077ZM83.4062 23.1545L85.0985 24.2205L85.1197 24.1869L85.1395 24.1525L83.4062 23.1545ZM97.8438 47.7014H105.578V43.7014H97.8438V47.7014ZM103.578 45.7014V56.6233H107.578V45.7014H103.578ZM105.578 54.6233H97.8438V58.6233H105.578V54.6233ZM95.8438 56.6233V71.3889H99.8438V56.6233H95.8438ZM97.8438 69.3889H84.2969V73.3889H97.8438V69.3889ZM86.2969 71.3889V56.6233H82.2969V71.3889H86.2969ZM84.2969 54.6233H56.3125V58.6233H84.2969V54.6233ZM58.3074 56.4808L57.698 47.9495L53.7082 48.2345L54.3176 56.7658L58.3074 56.4808ZM57.3931 49.1617L85.8462 4.20856L82.4663 2.06927L54.0132 47.0224L57.3931 49.1617ZM84.1562 5.13892H97.8438V1.13892H84.1562V5.13892ZM95.8438 3.13892V45.7014H99.8438V3.13892H95.8438ZM69.2031 47.7014H84.2969V43.7014H69.2031V47.7014ZM86.2969 45.7014V21.6077H82.2969V45.7014H86.2969ZM82.5636 20.6097L81.673 22.1566L85.1395 24.1525L86.0301 22.6056L82.5636 20.6097ZM81.714 22.0885L67.5109 44.6354L70.8954 46.7674L85.0985 24.2205L81.714 22.0885Z" fill="white" fill-opacity="0.2"/>
</svg>
