<svg width="107" height="75" viewBox="0 0 107 75" fill="none" xmlns="http://www.w3.org/2000/svg">
<path d="M2.45312 43.8733H0.453125V43.8835L0.45323 43.8938L2.45312 43.8733ZM8.35938 9.60767L6.80052 8.35466L6.79571 8.36069L8.35938 9.60767ZM42.5312 9.56079L40.9714 10.8126L40.9754 10.8175L42.5312 9.56079ZM48.5781 30.6077H50.5781V30.5974L50.578 30.5872L48.5781 30.6077ZM32.6875 17.0608L30.9652 18.0775L30.9725 18.0898L30.9799 18.102L32.6875 17.0608ZM18.3906 16.8733L16.691 15.8191L16.6873 15.8251L18.3906 16.8733ZM16 28.3577L14.0003 28.3217L14 28.3397V28.3577H16ZM18.25 57.3733L16.4988 58.3394L16.5055 58.3515L16.5123 58.3634L18.25 57.3733ZM35.0312 45.6077L37.0311 45.6311L37.0312 45.6194V45.6077H35.0312ZM46.5781 43.1702C46.5781 52.3699 44.6688 59.0817 41.1427 63.5951L44.2948 66.0577C48.5812 60.5711 50.5781 52.8455 50.5781 43.1702H46.5781ZM41.1427 63.5951C37.6883 68.0167 32.607 70.3264 25.5625 70.3264V74.3264C33.5805 74.3264 39.9367 71.6361 44.2948 66.0577L41.1427 63.5951ZM25.5625 70.3264C18.6081 70.3264 13.5467 68.06 10.0598 63.7152L6.9402 66.2188C11.3283 71.6866 17.6419 74.3264 25.5625 74.3264V70.3264ZM10.0598 63.7152C6.50544 59.2864 4.5442 52.7583 4.45302 43.8528L0.45323 43.8938C0.549547 53.3007 2.61956 60.8352 6.9402 66.2188L10.0598 63.7152ZM4.45312 43.8733V31.3108H0.453125V43.8733H4.45312ZM4.45312 31.3108C4.45312 22.0122 6.38016 15.2973 9.92304 10.8546L6.79571 8.36069C2.46359 13.793 0.453125 21.5469 0.453125 31.3108H4.45312ZM9.91822 10.8607C13.4392 6.48028 18.5193 4.20142 25.4688 4.20142V0.201416C17.5432 0.201416 11.2171 2.86005 6.80053 8.35467L9.91822 10.8607ZM25.4688 4.20142C32.4231 4.20142 37.4846 6.46783 40.9715 10.8126L44.091 8.30898C39.7029 2.84126 33.3894 0.201416 25.4688 0.201416V4.20142ZM40.9754 10.8175C44.5254 15.2127 46.487 21.7215 46.5782 30.6281L50.578 30.5872C50.4817 21.1813 48.4121 13.6589 44.0871 8.30412L40.9754 10.8175ZM46.5781 30.6077V43.1702H50.5781V30.6077H46.5781ZM37.0312 29.3889C37.0312 23.6394 36.2536 19.0676 34.3951 16.0196L30.9799 18.102C32.2464 20.179 33.0312 23.826 33.0312 29.3889H37.0312ZM34.4098 16.044C32.4815 12.7778 29.381 11.1702 25.4688 11.1702V15.1702C28.119 15.1702 29.831 16.1563 30.9652 18.0775L34.4098 16.044ZM25.4688 11.1702C21.6698 11.1702 18.6275 12.6969 16.691 15.8191L20.0902 17.9275C21.2162 16.1121 22.8927 15.1702 25.4688 15.1702V11.1702ZM16.6873 15.8251C14.9013 18.7273 14.096 22.9968 14.0003 28.3217L17.9997 28.3936C18.0915 23.281 18.8799 19.8943 20.0939 17.9215L16.6873 15.8251ZM14 28.3577V44.9514H18V28.3577H14ZM14 44.9514C14 50.6229 14.7524 55.1741 16.4988 58.3394L20.0012 56.4071C18.7476 54.135 18 50.405 18 44.9514H14ZM16.5123 58.3634C18.4331 61.7347 21.5713 63.4045 25.5625 63.4045V59.4045C22.8662 59.4045 21.1294 58.3869 19.9877 56.3832L16.5123 58.3634ZM25.5625 63.4045C29.4982 63.4045 32.6055 61.8005 34.4747 58.4994L30.994 56.5284C29.9258 58.4149 28.2518 59.4045 25.5625 59.4045V63.4045ZM34.4747 58.4994C36.1946 55.4622 36.9673 51.0833 37.0311 45.6311L33.0314 45.5843C32.9702 50.8195 32.2117 54.3781 30.994 56.5284L34.4747 58.4994ZM37.0312 45.6077V29.3889H33.0312V45.6077H37.0312ZM59.7812 37.8264L57.794 37.6008L57.596 39.3454L59.3002 39.7677L59.7812 37.8264ZM63.7188 3.13892V1.13892H61.9329L61.7315 2.91334L63.7188 3.13892ZM101.969 3.13892H103.969V1.13892H101.969V3.13892ZM101.969 14.4358V16.4358H103.969V14.4358H101.969ZM74.8281 14.4358V12.4358H73.045L72.8412 14.2073L74.8281 14.4358ZM73.1406 29.1077L71.1537 28.8791L70.7179 32.6686L74.0827 30.8719L73.1406 29.1077ZM101.406 61.3577L99.6433 60.4132L99.6402 60.419L101.406 61.3577ZM93.4375 69.467L94.4008 71.2198L94.4128 71.2131L93.4375 69.467ZM69.6719 69.842L68.8095 71.6466L68.8161 71.6497L68.8226 71.6528L69.6719 69.842ZM61.2812 62.7639L59.6198 63.8773L59.6237 63.8831L59.6277 63.889L61.2812 62.7639ZM58.0469 52.4045V50.4045H55.9813L56.0479 52.469L58.0469 52.4045ZM71.4531 52.4045L73.4434 52.2077L73.2651 50.4045H71.4531V52.4045ZM74.4062 59.0608L73.033 60.5148L73.0468 60.5279L73.0609 60.5407L74.4062 59.0608ZM88.1875 58.1233L89.7821 59.3306L89.7902 59.3197L88.1875 58.1233ZM71.875 39.2795L70.5853 37.751L70.5489 37.7816L70.5141 37.814L71.875 39.2795ZM70.5625 40.4983L70.0814 42.4396L71.131 42.6997L71.9234 41.9639L70.5625 40.4983ZM61.7685 38.052L65.706 3.36449L61.7315 2.91334L57.794 37.6008L61.7685 38.052ZM63.7188 5.13892H101.969V1.13892H63.7188V5.13892ZM99.9688 3.13892V14.4358H103.969V3.13892H99.9688ZM101.969 12.4358H74.8281V16.4358H101.969V12.4358ZM72.8412 14.2073L71.1537 28.8791L75.1275 29.3362L76.815 14.6643L72.8412 14.2073ZM74.0827 30.8719C77.0136 29.3069 80.1121 28.5295 83.4062 28.5295V24.5295C79.4504 24.5295 75.7052 25.471 72.1986 27.3434L74.0827 30.8719ZM83.4062 28.5295C89.4609 28.5295 93.9749 30.3877 97.2118 33.9263L100.163 31.2265C96.0251 26.7026 90.3516 24.5295 83.4062 24.5295V28.5295ZM97.2118 33.9263C100.464 37.4819 102.219 42.5811 102.219 49.4983H106.219C106.219 41.9155 104.286 35.7334 100.163 31.2265L97.2118 33.9263ZM102.219 49.4983C102.219 53.6118 101.346 57.2345 99.6433 60.4132L103.169 62.3021C105.216 58.4808 106.219 54.1973 106.219 49.4983H102.219ZM99.6402 60.419C97.9791 63.5441 95.5993 65.9687 92.4622 67.721L94.4128 71.2131C98.2132 69.0904 101.146 66.1088 103.172 62.2964L99.6402 60.419ZM92.4743 67.7143C89.3526 69.4298 85.6029 70.3264 81.1562 70.3264V74.3264C86.1471 74.3264 90.5849 73.3168 94.4007 71.2198L92.4743 67.7143ZM81.1562 70.3264C77.3075 70.3264 73.7714 69.5558 70.5212 68.0313L68.8226 71.6528C72.6348 73.4408 76.755 74.3264 81.1562 74.3264V70.3264ZM70.5342 68.0375C67.2998 66.4919 64.7848 64.3578 62.9348 61.6388L59.6277 63.889C61.9027 67.2325 64.9814 69.8172 68.8095 71.6466L70.5342 68.0375ZM62.9427 61.6506C61.1332 58.9501 60.1595 55.8652 60.0458 52.3401L56.0479 52.469C56.1842 56.6939 57.3668 60.5152 59.6198 63.8773L62.9427 61.6506ZM58.0469 54.4045H71.4531V50.4045H58.0469V54.4045ZM69.4628 52.6014C69.7801 55.8096 70.9191 58.5183 73.033 60.5148L75.7795 57.6068C74.5184 56.4157 73.6886 54.687 73.4434 52.2077L69.4628 52.6014ZM73.0609 60.5407C75.2137 62.4978 77.9588 63.4045 81.1094 63.4045V59.4045C78.76 59.4045 77.0363 58.7488 75.7516 57.5809L73.0609 60.5407ZM81.1094 63.4045C84.7147 63.4045 87.7 62.0804 89.782 59.3306L86.593 56.916C85.3625 58.5412 83.629 59.4045 81.1094 59.4045V63.4045ZM89.7902 59.3197C91.7982 56.6297 92.6719 53.0218 92.6719 48.7483H88.6719C88.6719 52.5373 87.8893 55.1794 86.5848 56.9269L89.7902 59.3197ZM92.6719 48.7483C92.6719 44.5628 91.6405 41.0372 89.2812 38.4846L86.3438 41.1995C87.797 42.7719 88.6719 45.1838 88.6719 48.7483H92.6719ZM89.2812 38.4846C86.907 35.9157 83.6138 34.7483 79.7031 34.7483V38.7483C82.7924 38.7483 84.9055 39.6434 86.3438 41.1995L89.2812 38.4846ZM79.7031 34.7483C76.1248 34.7483 73.0236 35.6936 70.5853 37.751L73.1647 40.8081C74.7264 39.4905 76.844 38.7483 79.7031 38.7483V34.7483ZM70.5141 37.814L69.2016 39.0327L71.9234 41.9639L73.2359 40.7451L70.5141 37.814ZM71.0436 38.557L60.2623 35.8851L59.3002 39.7677L70.0814 42.4396L71.0436 38.557Z" fill="white" fill-opacity="0.2"/>
</svg>
