<svg width="107" height="75" viewBox="0 0 107 75" fill="none" xmlns="http://www.w3.org/2000/svg">
<path d="M2.45312 43.8733H0.453125V43.8835L0.45323 43.8938L2.45312 43.8733ZM8.35938 9.60767L6.80052 8.35466L6.79571 8.36069L8.35938 9.60767ZM42.5312 9.56079L40.9714 10.8126L40.9754 10.8175L42.5312 9.56079ZM48.5781 30.6077H50.5781V30.5974L50.578 30.5872L48.5781 30.6077ZM32.6875 17.0608L30.9652 18.0775L30.9725 18.0898L30.9799 18.102L32.6875 17.0608ZM18.3906 16.8733L16.691 15.8191L16.6873 15.8251L18.3906 16.8733ZM16 28.3577L14.0003 28.3217L14 28.3397V28.3577H16ZM18.25 57.3733L16.4988 58.3394L16.5055 58.3515L16.5123 58.3634L18.25 57.3733ZM35.0312 45.6077L37.0311 45.6311L37.0312 45.6194V45.6077H35.0312ZM46.5781 43.1702C46.5781 52.3699 44.6688 59.0817 41.1427 63.5951L44.2948 66.0577C48.5812 60.5711 50.5781 52.8455 50.5781 43.1702H46.5781ZM41.1427 63.5951C37.6883 68.0167 32.607 70.3264 25.5625 70.3264V74.3264C33.5805 74.3264 39.9367 71.6361 44.2948 66.0577L41.1427 63.5951ZM25.5625 70.3264C18.6081 70.3264 13.5467 68.06 10.0598 63.7152L6.9402 66.2188C11.3283 71.6866 17.6419 74.3264 25.5625 74.3264V70.3264ZM10.0598 63.7152C6.50544 59.2864 4.5442 52.7583 4.45302 43.8528L0.45323 43.8938C0.549547 53.3007 2.61956 60.8352 6.9402 66.2188L10.0598 63.7152ZM4.45312 43.8733V31.3108H0.453125V43.8733H4.45312ZM4.45312 31.3108C4.45312 22.0122 6.38016 15.2973 9.92304 10.8546L6.79571 8.36069C2.46359 13.793 0.453125 21.5469 0.453125 31.3108H4.45312ZM9.91822 10.8607C13.4392 6.48028 18.5193 4.20142 25.4688 4.20142V0.201416C17.5432 0.201416 11.2171 2.86005 6.80053 8.35467L9.91822 10.8607ZM25.4688 4.20142C32.4231 4.20142 37.4846 6.46783 40.9715 10.8126L44.091 8.30898C39.7029 2.84126 33.3894 0.201416 25.4688 0.201416V4.20142ZM40.9754 10.8175C44.5254 15.2127 46.487 21.7215 46.5782 30.6281L50.578 30.5872C50.4817 21.1813 48.4121 13.6589 44.0871 8.30412L40.9754 10.8175ZM46.5781 30.6077V43.1702H50.5781V30.6077H46.5781ZM37.0312 29.3889C37.0312 23.6394 36.2536 19.0676 34.3951 16.0196L30.9799 18.102C32.2464 20.179 33.0312 23.826 33.0312 29.3889H37.0312ZM34.4098 16.044C32.4815 12.7778 29.381 11.1702 25.4688 11.1702V15.1702C28.119 15.1702 29.831 16.1563 30.9652 18.0775L34.4098 16.044ZM25.4688 11.1702C21.6698 11.1702 18.6275 12.6969 16.691 15.8191L20.0902 17.9275C21.2162 16.1121 22.8927 15.1702 25.4688 15.1702V11.1702ZM16.6873 15.8251C14.9013 18.7273 14.096 22.9968 14.0003 28.3217L17.9997 28.3936C18.0915 23.281 18.8799 19.8943 20.0939 17.9215L16.6873 15.8251ZM14 28.3577V44.9514H18V28.3577H14ZM14 44.9514C14 50.6229 14.7524 55.1741 16.4988 58.3394L20.0012 56.4071C18.7476 54.135 18 50.405 18 44.9514H14ZM16.5123 58.3634C18.4331 61.7347 21.5713 63.4045 25.5625 63.4045V59.4045C22.8662 59.4045 21.1294 58.3869 19.9877 56.3832L16.5123 58.3634ZM25.5625 63.4045C29.4982 63.4045 32.6055 61.8005 34.4747 58.4994L30.994 56.5284C29.9258 58.4149 28.2518 59.4045 25.5625 59.4045V63.4045ZM34.4747 58.4994C36.1946 55.4622 36.9673 51.0833 37.0311 45.6311L33.0314 45.5843C32.9702 50.8195 32.2117 54.3781 30.994 56.5284L34.4747 58.4994ZM37.0312 45.6077V29.3889H33.0312V45.6077H37.0312ZM94.5156 2.43579H96.5156V0.435791H94.5156V2.43579ZM94.5156 13.592V15.592H96.5156V13.592H94.5156ZM93.2031 13.592V11.592H93.1878L93.1725 11.5923L93.2031 13.592ZM78.3906 18.3733L77.1179 16.8305L77.1115 16.8358L78.3906 18.3733ZM71.6875 31.2639L69.7058 30.9937L68.8922 36.9603L73.1137 32.666L71.6875 31.2639ZM101.922 60.9358L100.161 59.9867L100.155 59.9986L101.922 60.9358ZM93.7656 69.3264L92.78 67.5861L92.7733 67.5899L93.7656 69.3264ZM64.4219 64.8264L62.9214 66.1487L62.926 66.154L64.4219 64.8264ZM61.9844 20.342L60.1916 19.4555L60.1896 19.4595L61.9844 20.342ZM74.0312 7.17017L75.0511 8.89058L75.0542 8.88875L74.0312 7.17017ZM92.2656 2.43579V0.43577L92.2566 0.435812L92.2656 2.43579ZM75.3438 38.342L76.4117 40.033L76.4223 40.0264L76.4327 40.0196L75.3438 38.342ZM71.4062 42.842L69.5824 42.0213L69.4062 42.4128V42.842H71.4062ZM74.0781 57.6077L72.4359 58.7492L72.4425 58.7587L74.0781 57.6077ZM88.6094 57.9827L87.0353 56.7489L87.033 56.7518L88.6094 57.9827ZM92.5156 2.43579V13.592H96.5156V2.43579H92.5156ZM94.5156 11.592H93.2031V15.592H94.5156V11.592ZM93.1725 11.5923C86.7141 11.6911 81.3009 13.3796 77.1179 16.8305L79.6634 19.916C82.9804 17.1795 87.4422 15.6805 93.2337 15.5918L93.1725 11.5923ZM77.1115 16.8358C72.9517 20.2964 70.5127 25.0765 69.7058 30.9937L73.6692 31.5341C74.3623 26.4513 76.392 22.6376 79.6697 19.9108L77.1115 16.8358ZM73.1137 32.666C76.3346 29.3896 80.3855 27.7327 85.4219 27.7327V23.7327C79.3958 23.7327 74.2904 25.7632 70.2613 29.8618L73.1137 32.666ZM85.4219 27.7327C90.8152 27.7327 94.9469 29.6302 98.0343 33.3791L101.122 30.8363C97.2093 26.0852 91.9035 23.7327 85.4219 23.7327V27.7327ZM98.0343 33.3791C101.169 37.186 102.828 42.2917 102.828 48.8889H106.828C106.828 41.6111 104.987 35.5294 101.122 30.8363L98.0343 33.3791ZM102.828 48.8889C102.828 53.0246 101.928 56.7095 100.161 59.9867L103.682 61.8849C105.79 57.9746 106.828 53.6282 106.828 48.8889H102.828ZM100.155 59.9986C98.4269 63.2566 95.9788 65.7744 92.78 67.5862L94.7513 71.0667C98.6149 68.8784 101.604 65.8025 103.689 61.873L100.155 59.9986ZM92.7733 67.5899C89.6053 69.4002 85.9848 70.3264 81.8594 70.3264V74.3264C86.6089 74.3264 90.9259 73.2526 94.7579 71.0629L92.7733 67.5899ZM81.8594 70.3264C75.1952 70.3264 69.9446 68.0362 65.9177 63.4988L62.926 66.154C67.7741 71.6166 74.1485 74.3264 81.8594 74.3264V70.3264ZM65.9224 63.5041C61.9132 58.9546 59.8125 52.7948 59.8125 44.8108H55.8125C55.8125 53.5143 58.1181 60.6982 62.9214 66.1487L65.9224 63.5041ZM59.8125 44.8108V39.9358H55.8125V44.8108H59.8125ZM59.8125 39.9358C59.8125 32.7822 61.1546 26.5621 63.7791 21.2245L60.1896 19.4595C57.2516 25.4345 55.8125 32.2768 55.8125 39.9358H59.8125ZM63.7772 21.2286C66.4264 15.8712 70.181 11.7777 75.0511 8.89058L73.0114 5.44975C67.444 8.75015 63.1674 13.4379 60.1916 19.4555L63.7772 21.2286ZM75.0542 8.88875C79.959 5.96924 85.6779 4.46562 92.2747 4.43577L92.2566 0.435812C85.0408 0.468462 78.6035 2.12109 73.0083 5.45158L75.0542 8.88875ZM92.2656 4.43579H94.5156V0.435791H92.2656V4.43579ZM81.2969 34.6077C78.7352 34.6077 76.3704 35.2912 74.2548 36.6645L76.4327 40.0196C77.8796 39.0804 79.4836 38.6077 81.2969 38.6077V34.6077ZM74.2758 36.6511C72.1713 37.9802 70.5914 39.7791 69.5824 42.0213L73.2301 43.6628C73.9086 42.155 74.9537 40.9539 76.4117 40.033L74.2758 36.6511ZM69.4062 42.842V46.967H73.4062V42.842H69.4062ZM69.4062 46.967C69.4062 51.7304 70.3382 55.7315 72.4359 58.7492L75.7203 56.4661C74.2556 54.3589 73.4062 51.2662 73.4062 46.967H69.4062ZM72.4425 58.7587C74.6157 61.8469 77.7393 63.4045 81.5781 63.4045V59.4045C78.9794 59.4045 77.103 58.4309 75.7137 56.4567L72.4425 58.7587ZM81.5781 63.4045C85.0972 63.4045 88.0237 61.9825 90.1858 59.2135L87.033 56.7518C85.6326 58.5453 83.8715 59.4045 81.5781 59.4045V63.4045ZM90.1835 59.2164C92.3337 56.473 93.3281 53.0214 93.3281 49.0295H89.3281C89.3281 52.3502 88.51 54.8673 87.0353 56.7489L90.1835 59.2164ZM93.3281 49.0295C93.3281 44.9857 92.3387 41.5083 90.1753 38.7854L87.0435 41.2737C88.505 43.1133 89.3281 45.6359 89.3281 49.0295H93.3281ZM90.1753 38.7854C87.9615 35.9991 84.9333 34.6077 81.2969 34.6077V38.6077C83.7855 38.6077 85.6322 39.4975 87.0435 41.2737L90.1753 38.7854Z" fill="white" fill-opacity="0.2"/>
</svg>
