<svg width="25" height="26" viewBox="0 0 25 26" fill="none" xmlns="http://www.w3.org/2000/svg">
<g clip-path="url(#clip0)">
<path d="M1.29262 25.004C0.963309 25.004 0.633997 24.8787 0.383795 24.6266C-0.118492 24.1243 -0.118492 23.31 0.383795 22.8077L22.8109 0.380621C23.3132 -0.121665 24.1275 -0.121665 24.6298 0.380621C25.1321 0.882908 25.1321 1.69724 24.6298 2.19984L2.20302 24.6266C1.95093 24.8771 1.62162 25.004 1.29262 25.004Z" fill="white"/>
<path d="M23.7213 25.004C23.392 25.004 23.063 24.8787 22.8125 24.6266L0.383795 2.19984C-0.118492 1.69724 -0.118492 0.882908 0.383795 0.380621C0.886082 -0.121665 1.70041 -0.121665 2.20302 0.380621L24.6298 22.8077C25.1321 23.31 25.1321 24.1243 24.6298 24.6266C24.3777 24.8771 24.0487 25.004 23.7213 25.004Z" fill="white"/>
</g>
<defs>
<clipPath id="clip0">
<rect width="25" height="25" fill="white" transform="translate(0 0.00390625)"/>
</clipPath>
</defs>
</svg>
