<svg width="158" height="63" viewBox="0 0 158 63" fill="none" xmlns="http://www.w3.org/2000/svg">
<path d="M0 24.8493C0.607502 24.8391 1.215 24.8238 1.82251 24.8212C2.84171 24.817 3.86007 24.817 4.87927 24.8221C5.28176 24.8238 5.29933 24.8484 5.31941 25.2389C5.32443 25.3393 5.32109 25.4396 5.32109 25.5392C5.32109 31.1697 5.32025 36.8003 5.32276 42.43C5.32276 43.3003 5.25582 43.1446 4.63325 43.1471C3.28604 43.1531 1.93798 43.1505 0.58993 43.148C0.393287 43.148 0.196643 43.1293 0 43.1199C0 37.03 0 30.9401 0 24.8493Z" fill="white"/>
<path d="M22.4167 62.9975C21.8895 62.8325 21.5506 62.4998 21.441 61.9299C21.3222 61.3131 21.7079 60.5952 22.2777 60.4693C23.2099 60.2643 23.7212 60.744 23.8434 61.3412C24.0074 62.1468 23.7413 62.6632 22.9112 62.9975C22.7455 62.9975 22.5807 62.9975 22.4167 62.9975Z" fill="white"/>
<path d="M156.519 62.9973C156.09 62.8442 155.764 62.6111 155.588 62.1364C155.379 61.5784 155.674 60.6316 156.351 60.4742C157.289 60.2564 157.87 60.7226 157.951 61.4074C157.954 61.4363 157.983 61.4627 158.001 61.4908C158.001 61.6243 158.001 61.7587 158.001 61.8923C157.886 62.458 157.567 62.8357 157.013 62.9964C156.848 62.9973 156.684 62.9973 156.519 62.9973Z" fill="white"/>
<path d="M61.1258 62.9973C60.2379 62.6817 59.8865 61.9901 60.2011 61.1769C60.422 60.6052 60.9517 60.3313 61.6019 60.4538C62.1483 60.5559 62.5173 60.9974 62.5374 61.5741C62.565 62.367 62.3023 62.7353 61.5216 62.9982C61.3894 62.9973 61.258 62.9973 61.1258 62.9973Z" fill="white"/>
<path d="M107.934 62.9974C106.979 62.6368 106.634 61.7674 107.124 60.9584C107.397 60.5084 107.983 60.3076 108.553 60.4675C109.01 60.596 109.327 61.0281 109.344 61.5462C109.374 62.4071 109.144 62.7346 108.328 62.9974C108.197 62.9974 108.065 62.9974 107.934 62.9974Z" fill="white"/>
<path d="M72.5738 43.1495C63.1457 43.1495 53.7169 43.1503 44.2889 43.1478C43.412 43.1478 43.4555 43.3 43.4546 42.2758C43.4538 41.3894 43.4513 40.503 43.4555 39.6158C43.458 39.0824 43.4647 39.0782 43.9734 39.0748C44.5491 39.0714 45.1257 39.0654 45.7014 39.0773C45.9658 39.0824 46.0637 38.9957 46.0938 38.709C46.4662 35.1983 47.544 31.947 49.6736 29.122C51.343 26.9068 53.4232 25.2549 56.1503 24.5786C58.2782 24.0512 60.3425 24.2791 62.3491 25.1417C62.7642 25.3204 62.7692 25.328 62.9399 24.9248C63.8009 22.8866 64.9189 21.0041 66.3188 19.3061C69.0927 15.9418 72.5386 13.6569 76.7836 12.6897C78.4002 12.3213 80.0495 12.255 81.6821 12.3936C85.0945 12.682 88.1688 13.9367 90.8859 16.0617C94.9317 19.2245 97.437 23.4166 98.7708 28.3742C99.1382 29.7379 99.4185 31.1262 99.4704 32.5442C99.5239 34.0125 99.5541 35.4816 99.5541 36.9507C99.5541 37.4789 99.426 38.0063 99.3775 38.5355C99.329 39.0697 99.3398 39.0722 99.8545 39.0748C100.348 39.0773 100.842 39.085 101.336 39.0722C101.605 39.0654 101.726 39.1641 101.724 39.4474C101.717 40.5515 101.718 41.6557 101.724 42.759C101.726 43.0261 101.638 43.1716 101.353 43.1503C101.206 43.1393 101.057 43.1495 100.909 43.1495C91.4632 43.1495 82.0185 43.1495 72.5738 43.1495ZM63.5943 34.2872L63.5959 34.2855C64.247 35.2315 64.7356 36.2582 65.0896 37.353C65.2829 37.9502 65.3005 37.957 65.8921 37.8609C66.728 37.7256 67.5631 37.5819 68.4032 37.4781C68.6894 37.4423 68.7296 37.3216 68.6777 37.0876C68.3229 35.4807 67.8376 33.9197 67.1012 32.4464C66.8678 31.9802 66.8694 31.9811 66.4561 32.272C65.503 32.944 64.5482 33.6152 63.5943 34.2872ZM56.9804 41.2831C56.9804 41.2848 56.9804 41.2874 56.9804 41.2891C59.1677 41.2891 61.3542 41.2891 63.5415 41.2899C63.7223 41.2899 63.903 41.3027 64.0838 41.3001C64.4319 41.2959 64.4779 41.2482 64.4503 40.8841C64.4361 40.703 64.3741 40.526 64.3599 40.3457C64.2394 38.8034 63.8428 37.342 63.1047 35.986C62.2705 34.4531 61.0521 33.3728 59.4062 32.813C58.1083 32.3707 56.7779 32.2703 55.439 32.5272C54.1855 32.7671 53.0851 33.3592 52.2207 34.3196C51.3597 35.2757 50.7949 36.4181 50.374 37.6397C49.9891 38.7575 49.7941 39.9144 49.6351 41.0798C49.6267 41.1385 49.7171 41.255 49.7799 41.2712C49.9037 41.3035 50.0409 41.2857 50.1723 41.2857C52.4417 41.2831 54.711 41.2831 56.9804 41.2831ZM80.6152 36.2642C80.616 36.2795 80.616 36.2948 80.6169 36.3101C82.0118 36.2625 83.4075 36.2216 84.8025 36.1646C86.2601 36.1051 87.717 36.0302 89.1746 35.963C89.5361 35.9469 89.6022 35.8882 89.5177 35.5581C89.1395 34.0822 88.742 32.6106 88.3738 31.1321C88.3128 30.8871 88.2241 30.8735 88.0065 30.8846C86.9254 30.939 85.8426 30.9858 84.7606 30.9986C83.149 31.0164 81.5365 31.0037 79.9249 31.002C79.7274 31.002 79.5307 30.9934 79.3333 30.9824C78.253 30.9237 77.1719 30.8735 76.0932 30.7952C75.7778 30.7723 75.6606 30.916 75.5862 31.1874C75.4322 31.7463 75.2607 32.3009 75.1 32.8573C74.8188 33.8287 74.546 34.8027 74.2532 35.7699C74.1938 35.9664 74.2046 36.0464 74.4188 36.0626C74.7285 36.0864 75.0364 36.1459 75.346 36.1578C76.4941 36.2004 77.643 36.2353 78.791 36.2608C79.3977 36.2752 80.0069 36.2642 80.6152 36.2642ZM89.8382 41.2848C92.0599 41.2848 94.2815 41.2857 96.504 41.284C96.9726 41.284 96.9818 41.2823 97.0939 40.8195C97.4864 39.2015 97.7558 37.5657 97.7433 35.8916C97.7407 35.5224 97.7458 35.5207 97.401 35.6517C96.0036 36.1817 94.5585 36.5151 93.0849 36.7252C92.2766 36.8409 91.4666 36.9464 90.6557 37.0349C89.6642 37.1438 88.6717 37.2654 87.6768 37.3173C86.3154 37.3879 84.9514 37.3964 83.5883 37.4347C83.441 37.4389 83.2954 37.4832 83.1481 37.484C82.8436 37.4857 82.7724 37.6423 82.7766 37.9306C82.7925 38.8842 82.7808 39.8378 82.7833 40.7914C82.7841 41.2789 82.7875 41.2831 83.272 41.2831C85.4602 41.2857 87.6492 41.2848 89.8382 41.2848ZM82.1967 27.3841C82.1967 28.0357 82.1934 28.6873 82.1976 29.3389C82.2009 29.8178 82.221 29.8468 82.7072 29.8365C84.0853 29.8102 85.4635 29.771 86.8417 29.737C86.8743 29.7362 86.9078 29.7362 86.9404 29.7319C88.0416 29.6009 89.1445 29.4767 90.2449 29.3372C91.5569 29.1713 92.8414 28.8685 94.1033 28.4704C94.4313 28.3666 94.4338 28.3496 94.2112 28.0561C93.1828 26.6993 92.1494 25.3459 91.1201 23.9891C90.8365 23.6148 90.8407 23.6114 90.4114 23.7526C88.8868 24.2545 87.3203 24.5726 85.7338 24.7649C84.6962 24.8908 83.6469 24.9231 82.6017 24.9724C82.3097 24.986 82.1875 25.0711 82.1934 25.3791C82.2068 26.0468 82.1976 26.7154 82.1967 27.3841ZM81.0436 27.3815C81.0436 26.6959 81.0436 26.0111 81.0436 25.3255C81.0436 25.1545 81.0545 24.9903 80.8052 24.9784C80.3474 24.9563 79.8897 24.9146 79.4328 24.8789C78.1944 24.781 76.951 24.7274 75.72 24.5718C74.4281 24.4076 73.1469 24.1558 71.8658 23.9159C71.6307 23.8717 71.4893 23.9134 71.3638 24.0988C70.481 25.4003 69.5957 26.7001 68.7162 28.0034C68.5363 28.2705 68.5505 28.3385 68.8543 28.4066C69.9831 28.6601 71.1102 28.9289 72.2499 29.1245C73.1654 29.2819 74.0959 29.3559 75.0222 29.4418C75.9016 29.5235 76.7836 29.5745 77.6647 29.6358C77.8287 29.6468 77.9936 29.6392 78.1576 29.6451C79.0094 29.6749 79.8621 29.7004 80.7131 29.7404C80.9775 29.7523 81.052 29.6375 81.0478 29.3865C81.0369 28.7188 81.0445 28.0501 81.0436 27.3815ZM76.1602 41.2848C77.8212 41.2848 79.483 41.2789 81.1441 41.2908C81.4386 41.2925 81.5499 41.2125 81.544 40.8969C81.5265 39.911 81.5298 38.9234 81.5424 37.9374C81.5465 37.6482 81.4838 37.5249 81.1641 37.5215C79.6529 37.5053 78.1425 37.4679 76.6313 37.4262C75.8615 37.4049 75.0916 37.3649 74.3218 37.3216C73.9134 37.2986 73.5059 37.2586 73.1001 37.2093C72.3872 37.1225 71.6776 37.0145 70.9638 36.9319C70.5697 36.886 70.4768 36.9847 70.5462 37.3709C70.7504 38.504 70.855 39.643 70.8332 40.7957C70.824 41.2806 70.8358 41.284 71.3228 41.2848C72.9361 41.2857 74.5486 41.2848 76.1602 41.2848ZM80.6211 18.1356C81.4386 18.0854 82.2628 18.0897 83.0712 17.9749C84.6393 17.752 86.1664 17.3352 87.6542 16.7788C87.8734 16.6972 88.0751 16.567 88.2851 16.4598C88.0852 16.3229 87.8944 16.1697 87.6843 16.0506C85.5907 14.8597 83.3147 14.3238 80.9466 14.1443C79.8629 14.0626 78.7827 14.1945 77.7174 14.3663C76.1786 14.6139 74.7092 15.1217 73.3009 15.8006C73.1336 15.8814 72.9905 16.0132 72.8357 16.1213C72.9963 16.2301 73.1469 16.3611 73.3202 16.4437C75.6313 17.5453 78.0429 18.1986 80.6211 18.1356ZM97.765 33.4451C97.7223 33.0997 97.6906 32.7518 97.6345 32.4081C97.4579 31.3303 97.2864 30.2508 97.083 29.1781C96.9876 28.6728 96.9558 28.6737 96.5073 28.8744C95.0212 29.5397 93.4841 30.0296 91.8833 30.3112C91.2256 30.4269 90.5695 30.5579 89.9102 30.6625C89.6332 30.7059 89.5453 30.831 89.6165 31.0998C90.0014 32.557 90.3913 34.0133 90.7578 35.4756C90.8156 35.7078 90.9051 35.7827 91.1193 35.7631C91.2499 35.7512 91.3837 35.7648 91.5126 35.7453C92.1092 35.6542 92.7058 35.5641 93.2991 35.4577C94.5861 35.2281 95.8622 34.9465 97.0772 34.4472C97.8269 34.1384 97.724 34.3238 97.765 33.4451ZM81.7156 23.7151C83.2594 23.7628 84.7932 23.6735 86.3195 23.4217C86.6233 23.3715 86.5831 23.2634 86.471 23.0669C85.7556 21.8131 85.0368 20.5617 84.3355 19.3002C84.2134 19.0799 84.0761 19.0518 83.8561 19.0765C82.9147 19.1794 81.9733 19.3053 81.0286 19.3444C80.278 19.3751 79.5232 19.2908 78.7701 19.2611C78.5115 19.2509 78.2764 19.2143 78.1325 19.5588C77.6338 20.7531 77.0957 21.9305 76.5744 23.1154C76.4606 23.374 76.5083 23.4702 76.8003 23.5016C77.0614 23.5297 77.3267 23.5084 77.5886 23.5255C78.4873 23.585 79.3851 23.6624 80.2838 23.7109C80.76 23.7364 81.2378 23.7151 81.7156 23.7151ZM75.0423 23.2771C75.0966 23.2235 75.2071 23.1614 75.2489 23.0678C75.8054 21.8275 76.3501 20.5813 76.9041 19.3393C77.0129 19.0952 76.9719 19.0093 76.6932 18.9446C75.0121 18.5559 73.3971 17.9791 71.9144 17.0672C71.6717 16.9183 71.4901 16.9804 71.291 17.1267C70.0216 18.0574 68.8601 19.1062 67.8434 20.3201C67.6895 20.5039 67.6911 20.6332 67.8719 20.7718C68.1196 20.9615 68.3547 21.1742 68.62 21.335C70.5722 22.5208 72.7654 22.8875 75.0423 23.2771ZM72.2307 35.8559C72.9369 35.8848 72.9378 35.8848 73.1001 35.3608C73.1737 35.1234 73.2415 34.8844 73.3118 34.6462C73.6658 33.4391 74.0231 32.2329 74.372 31.0241C74.4657 30.7 74.413 30.6353 74.1042 30.6021C73.8122 30.5715 73.5193 30.5468 73.2298 30.5009C72.265 30.3478 71.2943 30.2219 70.3395 30.0186C69.3856 29.8144 68.4484 29.5286 67.5037 29.2802C67.446 29.2649 67.3857 29.2581 67.3263 29.247C67.3447 29.3032 67.3539 29.3653 67.384 29.4129C67.6083 29.76 67.8493 30.096 68.0635 30.449C68.9597 31.9309 69.6258 33.5157 70.0818 35.1906C70.1479 35.4322 70.2375 35.6211 70.5077 35.6525C71.1387 35.7283 71.7704 35.8014 72.2307 35.8559ZM89.5127 17.3547C89.46 17.3734 89.4299 17.3836 89.3989 17.3939C88.1672 17.8268 86.9354 18.2615 85.702 18.6903C85.4685 18.7711 85.5087 18.8757 85.6108 19.0535C86.23 20.1304 86.8308 21.2184 87.4492 22.2962C87.9471 23.1639 87.9571 23.1699 88.906 22.8977C90.2926 22.4995 91.6615 22.0521 92.8924 21.2576C92.9652 21.2108 93.0657 21.1708 93.1468 21.181C93.3853 21.2108 93.3041 21.13 93.2196 21.016C92.2038 19.6498 90.9946 18.4819 89.6683 17.433C89.6198 17.3947 89.5554 17.3751 89.5127 17.3547ZM58.4255 26.1421C57.951 26.1889 57.4598 26.2136 56.977 26.2901C55.9796 26.4483 55.0733 26.8652 54.2014 27.3671C54.0131 27.4759 53.9495 27.5806 54.0173 27.84C54.2817 28.8481 54.4934 29.8697 54.7294 30.8854C54.8156 31.2572 54.8633 31.2682 55.2265 31.2138C55.7101 31.1415 56.1971 31.0632 56.6841 31.0538C57.2054 31.0436 57.7284 31.1083 58.2506 31.1457C58.4589 31.161 58.5778 31.087 58.6539 30.8744C59.1551 29.4699 59.6664 28.0689 60.1794 26.6687C60.2647 26.4356 60.1953 26.3139 59.9593 26.2901C59.4547 26.2391 58.9501 26.1923 58.4255 26.1421ZM66.1841 30.9211C66.1272 30.8199 66.0921 30.7434 66.0444 30.6762C64.9088 29.0931 63.5675 27.7516 61.7877 26.923C61.4538 26.7673 61.4437 26.7631 61.3124 27.1255C60.8195 28.4789 60.3425 29.8382 59.8388 31.1874C59.7359 31.4639 59.8396 31.526 60.0597 31.6068C61.0237 31.9624 61.8906 32.4855 62.6311 33.2128C62.7416 33.3209 62.8161 33.3455 62.96 33.2409C63.9716 32.5068 64.9934 31.7863 66.0109 31.0615C66.0711 31.019 66.1255 30.9688 66.1841 30.9211ZM66.9021 21.5961C66.8426 21.6684 66.7874 21.7263 66.7422 21.7926C65.846 23.0942 65.0913 24.4731 64.4963 25.9439C64.3959 26.1914 64.416 26.3497 64.6553 26.4798C65.4051 26.8881 66.1414 27.3211 66.9012 27.709C67.2945 27.9098 67.3288 27.8749 67.5782 27.5074C68.4242 26.2603 69.2576 25.0039 70.1178 23.767C70.3019 23.5025 70.2107 23.448 69.9772 23.363C68.9379 22.9861 67.9514 22.5081 67.1138 21.7569C67.0527 21.7025 66.9832 21.6574 66.9021 21.5961ZM53.5956 31.5949C53.5897 31.4681 53.5939 31.4332 53.5864 31.4018C53.3738 30.4848 53.1671 29.5669 52.9421 28.6524C52.8693 28.3572 52.8475 28.364 52.6057 28.5861C51.3764 29.7157 50.4259 31.059 49.6786 32.5553C49.2728 33.3685 49.277 33.3702 50.0158 33.8228C50.1137 33.8823 50.21 33.9444 50.3037 34.0116C50.4861 34.1426 50.6434 34.169 50.7991 33.9555C50.9647 33.7283 51.1421 33.508 51.3371 33.3073C51.9136 32.7109 52.5688 32.221 53.306 31.8433C53.4307 31.7786 53.527 31.6544 53.5956 31.5949ZM93.9317 22.0308C93.8531 22.0734 93.7945 22.1014 93.7393 22.1346C93.2598 22.4196 92.7904 22.7216 92.2992 22.9827C92.059 23.1103 92.0816 23.2218 92.2213 23.3919C92.2632 23.4429 92.2983 23.4999 92.3377 23.5527C93.3175 24.8448 94.2991 26.1353 95.2773 27.4292C95.622 27.8851 95.6538 27.8979 96.1634 27.652C96.596 27.4428 96.6287 27.4283 96.4362 26.9792C95.9475 25.8367 95.4421 24.7019 94.9116 23.579C94.6999 23.1307 94.4087 22.7216 94.1485 22.2979C94.089 22.2027 94.007 22.1227 93.9317 22.0308ZM67.3439 41.284C67.7874 41.284 68.2317 41.2848 68.6752 41.2831C68.8225 41.2823 68.9982 41.2993 68.9898 41.0738C68.9639 40.3261 68.9287 39.5784 68.8953 38.8315C68.8869 38.6367 68.7823 38.6503 68.625 38.6758C68.0309 38.7745 67.4317 38.8459 66.8359 38.937C66.4494 38.9957 66.0644 39.0629 65.682 39.1437C65.6268 39.1556 65.5498 39.273 65.554 39.3351C65.5933 39.8642 65.6578 40.3908 65.6988 40.9199C65.7197 41.1946 65.8469 41.2959 66.1113 41.2865C66.5222 41.2746 66.933 41.284 67.3439 41.284ZM47.8243 40.2257C47.8243 40.4597 47.821 40.6936 47.8251 40.9275C47.8285 41.0875 47.7841 41.2806 48.0469 41.2814C48.2954 41.2823 48.3373 41.1172 48.3565 40.9182C48.3849 40.6213 48.4184 40.3253 48.4544 40.0292C48.6276 38.6358 49.0276 37.3079 49.5682 36.02C49.6761 35.764 49.9414 35.4501 49.8694 35.2731C49.7773 35.046 49.4217 34.9244 49.1732 34.7687C48.8577 34.5705 48.8326 34.5756 48.7146 34.9482C48.1732 36.664 47.8703 38.4232 47.8243 40.2257Z" fill="white"/>
<path d="M24.1349 37.2026C24.1349 38.5909 24.1249 39.9792 24.1424 41.3666C24.1466 41.7001 24.0312 41.8864 23.7466 42.0318C22.5216 42.6596 21.2313 43.0475 19.8757 43.2619C18.7009 43.4473 17.5218 43.5018 16.3428 43.4405C14.2392 43.3308 12.2108 42.9148 10.4661 41.6039C8.9348 40.4538 8.01351 38.9014 7.57503 37.0316C7.28384 35.7871 7.21187 34.5221 7.28802 33.2564C7.39513 31.4734 7.80264 29.7661 8.81849 28.2681C9.94731 26.6025 11.5238 25.5731 13.4183 25.0296C14.6693 24.6706 15.9479 24.5217 17.2516 24.5098C19.064 24.4928 20.8497 24.6442 22.6036 25.124C23.1333 25.2695 23.1358 25.2686 23.1358 25.8258C23.1366 27.0303 23.1391 28.234 23.135 29.4386C23.1333 29.8648 23.1191 29.8784 22.7216 29.7448C20.838 29.1145 18.8933 28.9962 16.9403 29.1145C15.8023 29.1834 14.7195 29.5236 13.8676 30.3922C13.261 31.0115 12.953 31.7762 12.8016 32.6039C12.5798 33.8118 12.5966 35.0189 12.9388 36.2133C13.3681 37.713 14.3965 38.4939 15.8541 38.7695C16.983 38.983 18.1067 38.8895 19.223 38.6632C19.7167 38.5637 19.7226 38.5483 19.7242 38.0431C19.7268 37.4246 19.7134 36.8053 19.7293 36.1869C19.7368 35.8994 19.6297 35.8135 19.3561 35.8169C18.4515 35.8296 17.5461 35.8237 16.6415 35.8203C16.1755 35.8186 16.1696 35.8135 16.1671 35.3524C16.1629 34.5664 16.1621 33.7804 16.1671 32.9944C16.1696 32.5656 16.1771 32.5537 16.5671 32.5529C18.9527 32.5486 21.3376 32.5486 23.7232 32.5529C24.1207 32.5537 24.1307 32.5665 24.1324 32.9884C24.1374 34.3928 24.1341 35.7973 24.1349 37.2026Z" fill="white"/>
<path d="M119.36 31.1237C119.36 29.1995 119.359 27.2753 119.361 25.3511C119.362 24.8254 119.365 24.8211 119.874 24.8203C121.289 24.8177 122.704 24.8177 124.119 24.8203C124.636 24.8211 124.642 24.8254 124.642 25.3503C124.643 28.73 124.642 32.1097 124.643 35.4894C124.643 35.9896 124.653 36.4829 124.817 36.9704C125.158 37.9835 125.844 38.5654 126.862 38.7772C127.545 38.9193 128.225 38.9142 128.911 38.7806C130.228 38.5228 131.021 37.542 131.105 36.1427C131.148 35.4256 131.132 34.7042 131.133 33.9854C131.135 31.208 131.133 28.4305 131.133 25.6531C131.133 25.5357 131.131 25.4192 131.134 25.3018C131.146 24.839 131.156 24.8228 131.612 24.822C133.044 24.8186 134.475 24.8203 135.908 24.8203C135.974 24.8203 136.04 24.8262 136.106 24.8203C136.362 24.7982 136.465 24.9283 136.46 25.1759C136.458 25.2933 136.463 25.4098 136.463 25.5272C136.463 28.9069 136.474 32.2866 136.454 35.6663C136.45 36.4625 136.421 37.2622 136.23 38.0499C135.709 40.2038 134.404 41.6695 132.446 42.5644C131.469 43.011 130.444 43.2951 129.368 43.3529C128.631 43.3929 127.891 43.4788 127.157 43.4397C125.28 43.3402 123.496 42.9029 121.944 41.7443C120.551 40.7048 119.709 39.3267 119.459 37.5871C119.398 37.1601 119.366 36.7262 119.363 36.2949C119.353 34.5706 119.359 32.8472 119.36 31.1237Z" fill="white"/>
<path d="M154.064 43.1496C153.192 43.1496 152.319 43.1318 151.447 43.1581C151.081 43.1692 150.848 43.0603 150.633 42.7473C149.677 41.3496 148.693 39.9698 147.719 38.5841C147.439 38.1851 147.433 38.1826 147.144 38.5952C146.172 39.9818 145.196 41.3658 144.243 42.766C144.052 43.0467 143.853 43.1598 143.518 43.1573C141.724 43.1428 139.93 43.1505 138.136 43.1505C138.119 43.1505 138.102 43.1522 138.086 43.1505C137.961 43.1309 137.835 43.1105 137.709 43.0909C137.761 42.9727 137.793 42.8408 137.866 42.7388C138.687 41.5904 139.515 40.4479 140.338 39.3021C141.559 37.6041 142.767 35.896 144.009 34.2151C144.229 33.9173 144.176 33.7464 143.995 33.4937C142.798 31.8196 141.611 30.1378 140.42 28.4586C139.652 27.3749 138.882 26.2928 138.118 25.2074C138.055 25.1181 138.028 25.0032 137.983 24.9003C138.089 24.8739 138.194 24.8254 138.299 24.8254C140.142 24.8212 141.986 24.8254 143.829 24.8178C144.074 24.8169 144.21 24.9139 144.345 25.1146C145.24 26.434 146.15 27.7432 147.055 29.0558C147.121 29.1511 147.195 29.2429 147.251 29.3433C147.394 29.5994 147.49 29.5279 147.629 29.3237C148.245 28.4169 148.874 27.5203 149.499 26.6195C149.85 26.115 150.204 25.6123 150.55 25.1044C150.681 24.913 150.831 24.8152 151.077 24.8169C152.921 24.8263 154.764 24.8212 156.608 24.8246C156.716 24.8246 156.824 24.8671 156.931 24.8901C156.882 24.9896 156.847 25.0985 156.784 25.1878C154.945 27.7917 153.105 30.3947 151.26 32.9944C150.65 33.8535 150.641 33.8501 151.251 34.7017C153.157 37.3591 155.065 40.0149 156.968 42.6741C157.052 42.7915 157.109 42.9285 157.178 43.0569C157.028 43.0884 156.878 43.1462 156.727 43.1479C155.841 43.1539 154.952 43.1496 154.064 43.1496Z" fill="white"/>
<path d="M26.1394 33.9548C26.1394 31.0957 26.1385 28.2366 26.1402 25.3784C26.1402 24.8246 26.1436 24.8212 26.6757 24.8204C28.0899 24.8187 29.5041 24.8187 30.9191 24.8204C31.427 24.8212 31.4312 24.8255 31.4312 25.3503C31.432 29.6972 31.4303 34.0441 31.4337 38.3911C31.4345 39.1686 31.3433 39.0716 32.1274 39.0724C34.4135 39.0767 36.6995 39.0733 38.9856 39.0741C39.5254 39.0741 39.5279 39.0775 39.5295 39.6237C39.5312 40.6266 39.5321 41.6295 39.5295 42.6333C39.5279 43.1403 39.5245 43.1471 39.0509 43.148C34.9063 43.1497 30.7617 43.1497 26.618 43.148C26.1469 43.148 26.1419 43.1412 26.1419 42.6316C26.1385 39.7394 26.1394 36.8471 26.1394 33.9548Z" fill="white"/>
<path d="M105.633 33.9702C105.633 31.1596 105.633 28.3481 105.633 25.5375C105.633 25.404 105.641 25.2696 105.634 25.136C105.622 24.8936 105.741 24.8153 105.964 24.8187C106.458 24.8255 106.951 24.8196 107.445 24.8196C108.432 24.8196 109.42 24.8179 110.407 24.8204C110.918 24.8221 110.923 24.8255 110.923 25.3512C110.924 29.7015 110.923 34.0519 110.924 38.4013C110.924 39.1567 110.847 39.0725 111.581 39.0733C113.886 39.0767 116.189 39.0733 118.494 39.075C119.018 39.075 119.021 39.0793 119.023 39.5897C119.025 40.6267 119.027 41.6645 119.022 42.7014C119.02 43.1378 119.013 43.1472 118.576 43.1472C114.412 43.1497 110.248 43.1497 106.084 43.1472C105.642 43.1472 105.636 43.1378 105.636 42.653C105.633 39.7598 105.633 36.865 105.633 33.9702Z" fill="white"/>
<path d="M75.4742 58.157C75.4742 59.5444 75.4758 60.9327 75.4733 62.3202C75.4725 62.8186 75.4675 62.8212 74.9855 62.8255C74.5412 62.8289 74.0968 62.8101 73.6533 62.8314C73.368 62.845 73.1998 62.7361 73.0684 62.4843C72.0266 60.4793 70.9765 58.4786 69.9297 56.4761C69.8912 56.4029 69.8644 56.323 69.8217 56.2524C69.7749 56.1741 69.7154 56.1035 69.6619 56.0295C69.6577 56.112 69.6477 56.1945 69.6485 56.277C69.6803 58.1468 69.7129 60.0174 69.7447 61.8872C69.7464 62.0046 69.7456 62.1211 69.7447 62.2385C69.7422 62.822 69.7422 62.8238 69.1866 62.8255C68.841 62.8272 68.4954 62.8152 68.1507 62.8272C67.8896 62.8365 67.7925 62.7183 67.8126 62.4673C67.8176 62.401 67.8126 62.3338 67.8126 62.2666C67.8126 59.5079 67.8118 56.7492 67.8134 53.9905C67.8134 53.4341 67.8168 53.4324 68.3465 53.4299C68.8561 53.4273 69.3665 53.4401 69.8761 53.4248C70.1372 53.4171 70.302 53.5056 70.4292 53.7429C71.4936 55.7343 72.7195 57.639 73.542 59.7605C73.5596 59.8064 73.5789 59.8532 73.6031 59.8966C73.6182 59.923 73.6441 59.9434 73.665 59.9664C73.6784 59.9315 73.706 59.8949 73.7019 59.8617C73.4617 57.8993 73.5571 55.9266 73.542 53.9581C73.5379 53.435 73.5462 53.4341 74.0558 53.4299C74.3679 53.4273 74.6809 53.4265 74.993 53.4299C75.4683 53.435 75.4725 53.4367 75.4733 53.942C75.4758 55.0121 75.4742 56.0822 75.4742 57.1524C75.4742 57.4884 75.4742 57.8227 75.4742 58.157Z" fill="white"/>
<path d="M110.682 58.1266C110.682 56.8225 110.682 55.5193 110.682 54.2152C110.682 53.6197 110.678 53.5857 111.251 53.5117C112.584 53.3398 113.924 53.2471 115.256 53.5389C115.84 53.6674 116.374 53.9158 116.78 54.3896C117.57 55.3134 117.696 57.1406 116.199 58.1444C116.117 58.1997 116.032 58.2525 115.943 58.295C115.802 58.363 115.758 58.443 115.912 58.5383C116.537 58.9253 116.775 59.554 116.953 60.2269C117.153 60.9805 117.352 61.7351 117.573 62.4828C117.645 62.7295 117.598 62.8265 117.345 62.8248C116.835 62.8214 116.325 62.8154 115.816 62.8282C115.563 62.835 115.468 62.6861 115.41 62.4803C115.245 61.8891 115.082 61.2978 114.921 60.7058C114.873 60.5297 114.841 60.3485 114.786 60.175C114.504 59.286 113.91 59.0793 113.007 59.1159C112.783 59.1252 112.805 59.292 112.805 59.44C112.802 60.0754 112.804 60.71 112.803 61.3455C112.803 61.73 112.795 62.1145 112.804 62.499C112.809 62.7321 112.714 62.8299 112.483 62.8256C112.023 62.818 111.563 62.8307 111.103 62.8231C110.71 62.8163 110.689 62.7993 110.687 62.3875C110.68 61.2681 110.684 60.1477 110.684 59.0283C110.682 58.728 110.682 58.4268 110.682 58.1266ZM112.802 56.3027C112.802 56.6353 112.813 56.9688 112.799 57.3014C112.787 57.566 112.897 57.668 113.146 57.6425C113.518 57.6042 113.898 57.6034 114.261 57.5217C114.884 57.3822 115.335 56.7476 115.272 56.1709C115.194 55.441 114.788 55.0403 114.055 54.9944C113.745 54.9748 113.433 55.0038 113.123 54.9893C112.852 54.9765 112.789 55.1118 112.798 55.3534C112.811 55.6698 112.802 55.9863 112.802 56.3027Z" fill="white"/>
<path d="M14 62.8213C12.6662 62.7924 13.0126 63.0552 12.6043 61.7613C12.4988 61.4287 12.3976 61.0944 12.3089 60.7576C12.2444 60.5151 12.1265 60.4028 11.8595 60.4105C11.2018 60.4292 10.5433 60.4241 9.88472 60.413C9.64624 60.4088 9.53494 60.4955 9.47553 60.7363C9.34081 61.2841 9.1768 61.8251 9.02283 62.3679C8.89397 62.8213 8.89313 62.823 8.41868 62.8255C7.99108 62.8281 7.56265 62.8332 7.13506 62.823C6.78361 62.8145 6.75851 62.7856 6.85725 62.4444C7.19112 61.296 7.53253 60.1493 7.87728 59.0043C8.39441 57.2868 8.92744 55.5736 9.42951 53.851C9.52156 53.5354 9.65544 53.4154 9.97342 53.4256C10.5818 53.4452 11.1909 53.4299 11.8001 53.4316C12.3022 53.4333 12.3055 53.4342 12.4495 53.9054C13.2118 56.3996 13.9724 58.8946 14.7339 61.3896C14.8502 61.7707 14.9581 62.1552 15.0828 62.5338C15.1481 62.7337 15.0853 62.8204 14.8887 62.8221C14.5924 62.8238 14.2962 62.8213 14 62.8213ZM10.8579 58.8504V58.8512C11.0378 58.8512 11.2185 58.8538 11.3985 58.8512C11.8553 58.8444 11.8855 58.8044 11.765 58.3689C11.488 57.3642 11.211 56.3605 10.9324 55.3558C10.9165 55.2971 10.8855 55.2427 10.8612 55.1857C10.8336 55.2342 10.7935 55.2801 10.7792 55.332C10.4947 56.4021 10.2136 57.4731 9.9299 58.5433C9.87217 58.7602 9.94748 58.8572 10.1684 58.8521C10.3993 58.8461 10.6286 58.8504 10.8579 58.8504Z" fill="white"/>
<path d="M148.134 62.8255C147.92 62.8255 147.707 62.8272 147.492 62.8255C147.005 62.8213 147.003 62.8213 146.857 62.3279C146.707 61.8183 146.553 61.3096 146.415 60.7967C146.339 60.5185 146.206 60.3943 145.898 60.4088C145.291 60.4368 144.68 60.4385 144.073 60.4088C143.739 60.3926 143.607 60.5415 143.534 60.8358C143.402 61.3675 143.247 61.8932 143.116 62.4249C143.048 62.7047 142.925 62.8519 142.61 62.8323C142.167 62.8051 141.722 62.8315 141.278 62.8238C140.877 62.8162 140.844 62.7745 140.959 62.3849C141.239 61.4279 141.527 60.4743 141.814 59.5198C142.368 57.6747 142.924 55.8305 143.476 53.9854C143.641 53.435 143.637 53.4325 144.225 53.4316C144.784 53.4308 145.344 53.4291 145.903 53.4325C146.399 53.435 146.405 53.435 146.552 53.919C147.154 55.8892 147.752 57.8602 148.351 59.8303C148.617 60.7048 148.888 61.5767 149.144 62.4538C149.246 62.8034 149.231 62.8128 148.876 62.8238C148.628 62.8315 148.381 62.8255 148.134 62.8255ZM144.965 58.8512C145.177 58.8512 145.391 58.858 145.603 58.8495C145.935 58.8376 145.972 58.7917 145.883 58.4573C145.603 57.4042 145.316 56.3528 145.029 55.3014C145.017 55.2597 144.98 55.2248 144.955 55.1874C144.931 55.2223 144.894 55.2537 144.884 55.292C144.804 55.6119 144.734 55.9343 144.651 56.2533C144.464 56.9729 144.27 57.69 144.083 58.4097C143.971 58.8384 143.978 58.8444 144.424 58.8512C144.604 58.8538 144.784 58.8512 144.965 58.8512Z" fill="white"/>
<path d="M85.9824 58.1229C85.9824 56.7176 85.9807 55.3132 85.984 53.9079C85.9849 53.44 85.9916 53.4332 86.4509 53.4315C88.0634 53.4281 89.6759 53.4281 91.2883 53.4315C91.7218 53.4324 91.7369 53.4528 91.7477 53.8773C91.7544 54.1444 91.7528 54.4123 91.7486 54.6803C91.7419 55.1847 91.7377 55.1924 91.2557 55.1941C90.3838 55.1983 89.5119 55.1941 88.64 55.1958C88.117 55.1966 88.1161 55.1983 88.1153 55.7513C88.1145 56.1026 88.127 56.4539 88.1119 56.8044C88.1002 57.0707 88.209 57.1506 88.4584 57.1472C89.3136 57.137 90.1696 57.1413 91.0248 57.1447C91.5168 57.1464 91.5268 57.1583 91.536 57.6423C91.5411 57.9094 91.5285 58.1774 91.5377 58.4453C91.5486 58.7431 91.4164 58.8698 91.126 58.8673C90.3855 58.8613 89.6449 58.8664 88.9052 58.8673C88.7571 58.8673 88.609 58.8732 88.4609 58.8681C88.214 58.8588 88.1061 58.9642 88.1119 59.2254C88.1245 59.7264 88.127 60.2292 88.1111 60.7302C88.1027 61.005 88.2249 61.0679 88.4659 61.0662C89.4198 61.0586 90.3746 61.062 91.3285 61.0637C91.8666 61.0654 91.8674 61.0679 91.8707 61.6209C91.8724 61.905 91.8615 62.19 91.8724 62.4741C91.8825 62.7318 91.777 62.8305 91.5243 62.8271C90.9319 62.8178 90.3394 62.8254 89.7478 62.8254C88.6952 62.8254 87.6417 62.8263 86.589 62.8254C85.9849 62.8246 85.984 62.8237 85.984 62.1866C85.9815 60.8323 85.9824 59.4772 85.9824 58.1229Z" fill="white"/>
<path d="M3.02387 62.8255C2.18541 62.8255 1.34612 62.8289 0.507669 62.8238C0.0809116 62.8212 0.0725438 62.8136 0.071707 62.3678C0.0691966 59.5427 0.0691966 56.7168 0.071707 53.8917C0.0725438 53.4426 0.0800748 53.4332 0.504322 53.4324C2.11596 53.4281 3.7276 53.4281 5.33924 53.4324C5.7434 53.4332 5.74675 53.4443 5.75595 53.8577C5.76181 54.1248 5.7593 54.3928 5.75679 54.6599C5.75344 55.1899 5.75261 55.1933 5.24887 55.195C4.39368 55.1975 3.53849 55.1941 2.6833 55.1967C2.20299 55.1975 2.20131 55.2009 2.19797 55.6935C2.19546 56.0448 2.21303 56.397 2.19294 56.7466C2.17537 57.0494 2.27495 57.1583 2.58288 57.1515C3.4046 57.1328 4.22716 57.143 5.04971 57.1464C5.55429 57.1481 5.55513 57.1515 5.55847 57.6806C5.56015 57.9477 5.54592 58.2165 5.56182 58.4828C5.57939 58.7712 5.44635 58.8699 5.18276 58.8682C4.45895 58.8639 3.73597 58.8673 3.01215 58.869C2.83141 58.869 2.65066 58.8716 2.46992 58.8741C2.29168 58.8767 2.1988 58.9609 2.19964 59.1506C2.20215 59.7027 2.20382 60.2539 2.1988 60.806C2.19629 61.0927 2.39294 61.0646 2.57284 61.0646C3.46067 61.0654 4.34933 61.0654 5.23715 61.0654C5.36853 61.0654 5.50074 61.0722 5.63211 61.0663C5.86055 61.0561 5.96013 61.1607 5.95511 61.3938C5.94758 61.7281 5.95929 62.0624 5.95343 62.3967C5.9459 62.8127 5.94172 62.8221 5.54006 62.8246C4.70077 62.8297 3.86232 62.8255 3.02387 62.8255Z" fill="white"/>
<path d="M134.172 58.1246C134.172 56.7193 134.17 55.3149 134.173 53.9096C134.174 53.4392 134.181 53.4324 134.638 53.4315C136.218 53.4281 137.797 53.4281 139.377 53.4315C139.854 53.4324 139.854 53.4383 139.859 53.9419C139.862 54.226 139.845 54.5118 139.864 54.7943C139.884 55.1005 139.765 55.2051 139.465 55.2C138.577 55.1856 137.689 55.1941 136.8 55.1958C136.296 55.1966 136.296 55.1992 136.293 55.724C136.291 56.0754 136.306 56.4267 136.29 56.7772C136.276 57.0638 136.393 57.1515 136.665 57.1472C137.488 57.1344 138.311 57.1413 139.133 57.1438C139.657 57.1455 139.658 57.1481 139.663 57.6576C139.665 57.9256 139.648 58.1935 139.667 58.4598C139.69 58.7762 139.538 58.8681 139.258 58.8664C138.435 58.8604 137.613 58.8621 136.79 58.8672C136.301 58.8698 136.299 58.8758 136.294 59.3759C136.291 59.7604 136.291 60.1449 136.294 60.5303C136.296 61.0586 136.297 61.0611 136.799 61.062C137.721 61.0637 138.642 61.0603 139.563 61.0637C140.051 61.0654 140.053 61.0705 140.058 61.5664C140.061 61.8505 140.044 62.1363 140.062 62.4188C140.08 62.7199 139.973 62.839 139.668 62.8288C139.142 62.8101 138.615 62.8245 138.089 62.8245C136.97 62.8245 135.851 62.8254 134.732 62.8237C134.178 62.8228 134.175 62.8203 134.175 62.2376C134.171 60.868 134.172 59.4959 134.172 58.1246Z" fill="white"/>
<path d="M118.866 58.0949C118.866 56.7067 118.865 55.3184 118.867 53.9301C118.868 53.4376 118.873 53.4325 119.362 53.4316C120.925 53.429 122.488 53.429 124.05 53.4316C124.545 53.4325 124.547 53.4367 124.552 53.9224C124.556 54.2236 124.54 54.5247 124.556 54.825C124.57 55.1108 124.448 55.2027 124.178 55.1993C123.356 55.1891 122.533 55.1908 121.71 55.1976C120.902 55.2044 120.995 55.0793 120.987 55.9564C120.984 56.2073 120.982 56.4583 120.987 56.7092C120.995 57.1371 120.998 57.1422 121.439 57.1439C122.278 57.1473 123.117 57.1541 123.956 57.1405C124.248 57.1362 124.381 57.2256 124.361 57.5395C124.341 57.8389 124.362 58.1417 124.356 58.442C124.347 58.8342 124.33 58.858 123.921 58.8639C123.23 58.8733 122.539 58.8639 121.849 58.8682C120.854 58.8742 121.001 58.7729 120.988 59.7588C120.985 60.043 120.984 60.3279 120.988 60.6121C120.995 61.0553 120.997 61.0612 121.424 61.0629C122.329 61.0672 123.234 61.0638 124.139 61.0646C124.254 61.0646 124.369 61.0697 124.484 61.0689C124.67 61.0672 124.75 61.1658 124.75 61.3479C124.748 61.7494 124.747 62.1509 124.75 62.5516C124.75 62.7396 124.663 62.8255 124.48 62.8229C124.365 62.8212 124.25 62.8255 124.135 62.8263C122.572 62.8263 121.008 62.8272 119.446 62.8263C118.872 62.8263 118.87 62.8238 118.87 62.2598C118.865 60.8707 118.866 59.4824 118.866 58.0949Z" fill="white"/>
<path d="M46.976 58.1129C46.976 56.7255 46.9743 55.338 46.9768 53.9506C46.9777 53.4359 46.9819 53.4317 47.4998 53.4317C49.0621 53.43 50.6235 53.4291 52.1858 53.4325C52.6536 53.4334 52.6552 53.4393 52.6619 53.8987C52.6661 54.1998 52.6477 54.5018 52.6669 54.8012C52.687 55.1134 52.5582 55.2062 52.2636 55.2019C51.3599 55.1883 50.4553 55.1951 49.5508 55.1985C49.1156 55.2002 49.1131 55.2045 49.109 55.6357C49.1048 56.0032 49.1039 56.3716 49.109 56.7391C49.1148 57.138 49.1182 57.1431 49.5315 57.1457C50.3532 57.1499 51.1758 57.144 51.9975 57.1482C52.4561 57.1508 52.4578 57.1559 52.4644 57.6238C52.4678 57.9079 52.4494 58.1929 52.4686 58.4761C52.4904 58.8036 52.3172 58.8725 52.0477 58.87C51.472 58.8649 50.8972 58.8691 50.3214 58.8691C50.042 58.8691 49.7625 58.8785 49.483 58.8674C49.2152 58.8572 49.0947 58.9568 49.1039 59.246C49.1198 59.73 49.1207 60.2157 49.1031 60.6998C49.0922 60.9882 49.2035 61.0741 49.4755 61.0698C50.2813 61.0571 51.0871 61.0656 51.8921 61.0656C52.0561 61.0656 52.2209 61.063 52.385 61.0664C52.8502 61.0749 52.8519 61.0758 52.8594 61.5402C52.8636 61.7912 52.8619 62.0413 52.8602 62.2922C52.8561 62.8213 52.8552 62.8256 52.3515 62.8264C51.3817 62.829 50.411 62.8273 49.4412 62.8273C48.7667 62.8273 48.0931 62.8307 47.4187 62.8256C46.986 62.8222 46.9777 62.8162 46.9768 62.3764C46.9735 60.9541 46.976 59.5335 46.976 58.1129Z" fill="white"/>
<path d="M39.6684 58.0779C39.6684 56.6896 39.6659 55.3004 39.6692 53.9122C39.6701 53.44 39.6768 53.4332 40.132 53.4324C41.7285 53.429 43.3243 53.429 44.9209 53.4332C45.3451 53.4341 45.3476 53.4434 45.3543 53.8926C45.3585 54.1937 45.3401 54.4957 45.3593 54.796C45.3786 55.1022 45.2614 55.2069 44.961 55.2018C44.0724 55.1873 43.1837 55.1958 42.295 55.1975C41.788 55.1984 41.7863 55.2009 41.7838 55.7241C41.7821 56.0754 41.7955 56.4276 41.7804 56.778C41.7679 57.0639 41.8842 57.154 42.157 57.1498C42.9795 57.137 43.8029 57.1438 44.6255 57.1464C45.1552 57.1481 45.1552 57.1506 45.1585 57.7078C45.1602 57.9588 45.1434 58.2106 45.1619 58.4607C45.1853 58.7754 45.038 58.8724 44.7552 58.8698C43.9326 58.8639 43.1092 58.8656 42.2867 58.8698C41.7946 58.8724 41.7888 58.8809 41.7846 59.3734C41.7804 59.7749 41.7813 60.1765 41.7846 60.578C41.7888 61.0603 41.7913 61.0628 42.2875 61.0637C43.2088 61.0662 44.1309 61.062 45.0522 61.0654C45.5459 61.0671 45.5476 61.0714 45.5535 61.5622C45.5568 61.8463 45.5409 62.1321 45.5577 62.4154C45.5744 62.7097 45.4798 62.8331 45.1694 62.8314C43.4741 62.8203 41.7796 62.8288 40.0843 62.8237C39.6834 62.8229 39.6734 62.8118 39.6726 62.3941C39.6659 60.9548 39.6684 59.5163 39.6684 58.0779Z" fill="white"/>
<path d="M54.2889 58.1392C54.2889 56.8011 54.288 55.4621 54.2889 54.124C54.2897 53.6085 54.2872 53.5753 54.7951 53.5149C56.0971 53.3601 57.4033 53.2342 58.7054 53.5303C60.0334 53.8322 60.8174 54.6999 60.9421 55.9351C61.0936 57.4272 60.507 58.5143 59.2761 59.097C58.6912 59.3743 58.0636 59.4951 57.4184 59.513C57.205 59.519 56.9891 59.5283 56.7766 59.5104C56.4954 59.4875 56.4059 59.6032 56.4101 59.8839C56.4235 60.6869 56.4168 61.4899 56.4143 62.293C56.4126 62.8204 56.4101 62.8221 55.903 62.8255C55.5407 62.828 55.1792 62.828 54.8169 62.8255C54.2947 62.8221 54.2905 62.8204 54.2889 62.3049C54.2855 61.4015 54.288 60.4981 54.288 59.5947C54.2888 59.1089 54.2889 58.624 54.2889 58.1392ZM56.4168 56.4268C56.4168 56.8096 56.4067 57.1932 56.4243 57.576C56.4285 57.6662 56.5197 57.8253 56.5774 57.8287C57.1297 57.8602 57.6996 57.9435 58.2016 57.6186C58.7388 57.2715 58.9455 56.7858 58.8903 56.2286C58.8292 55.6084 58.4778 55.1686 57.8602 55.0555C57.4636 54.9823 57.0477 55.0087 56.6402 55.0079C56.4452 55.0079 56.4159 55.1661 56.4159 55.3286C56.4176 55.6935 56.4176 56.0601 56.4168 56.4268Z" fill="white"/>
<path d="M126.173 58.1468C126.173 56.7747 126.172 55.4034 126.174 54.0313C126.175 53.6017 126.177 53.5787 126.617 53.5234C127.919 53.3618 129.221 53.2393 130.525 53.5251C132.008 53.8501 132.719 54.7662 132.827 56.0839C132.934 57.3888 132.368 58.584 131.055 59.1353C130.474 59.3794 129.868 59.5078 129.238 59.5112C129.04 59.5121 128.842 59.524 128.645 59.5087C128.366 59.4866 128.267 59.6082 128.27 59.8864C128.28 60.6222 128.271 61.3589 128.274 62.0947C128.277 62.9598 128.242 62.8135 127.543 62.8237C127.247 62.828 126.951 62.8271 126.654 62.8237C126.178 62.8186 126.174 62.8169 126.173 62.3116C126.171 61.2908 126.172 60.2709 126.172 59.2501C126.173 58.8835 126.173 58.5151 126.173 58.1468ZM129.084 54.9483C129.08 54.9644 129.078 54.9806 129.074 54.9959C128.943 54.9959 128.811 55.0053 128.68 54.9942C128.38 54.9695 128.269 55.1133 128.273 55.4076C128.281 56.1086 128.274 56.8095 128.277 57.5105C128.278 57.6602 128.274 57.8363 128.486 57.8405C128.975 57.849 129.474 57.9273 129.936 57.69C130.489 57.4067 130.744 56.9558 130.732 56.317C130.722 55.7505 130.488 55.3438 129.984 55.1388C129.704 55.0248 129.385 55.0087 129.084 54.9483Z" fill="white"/>
<path d="M80.7235 62.8256C80.4934 62.8256 80.2633 62.8265 80.0331 62.8256C79.4524 62.8239 79.4499 62.8248 79.2775 62.2795C78.7821 60.7126 78.2893 59.1448 77.7956 57.577C77.4165 56.3742 77.0375 55.1713 76.6592 53.9685C76.6241 53.8579 76.5705 53.7456 76.5689 53.6333C76.568 53.5687 76.655 53.4479 76.7036 53.447C77.3446 53.4343 77.9864 53.4232 78.6257 53.4538C78.7219 53.4589 78.8508 53.6674 78.8918 53.8043C79.1445 54.6465 79.3871 55.492 79.6139 56.3418C79.9821 57.7191 80.3352 59.0997 80.695 60.4795C80.7101 60.539 80.7302 60.5969 80.7486 60.6556C80.7796 60.602 80.8247 60.5518 80.8406 60.494C81.4565 58.2729 82.0741 56.0526 82.6774 53.8273C82.756 53.5389 82.874 53.4087 83.182 53.4241C83.6573 53.4479 84.1351 53.4249 84.612 53.4317C84.9969 53.4377 85.0053 53.4504 84.8806 53.8332C84.4028 55.2998 83.9225 56.7655 83.4397 58.2303C82.987 59.6033 82.5293 60.9746 82.0732 62.3459C81.9159 62.8205 81.9151 62.8205 81.4147 62.8248C81.1837 62.8273 80.9536 62.8256 80.7235 62.8256Z" fill="white"/>
<path d="M95.5811 62.9208C94.859 62.9812 94.1695 62.8638 93.4959 62.6273C92.9846 62.4478 92.9787 62.4436 93.0942 61.9298C93.167 61.6057 93.249 61.2841 93.3243 60.96C93.3779 60.7295 93.4867 60.6972 93.7126 60.7703C94.208 60.9303 94.7243 61.0221 95.2188 61.1846C95.638 61.3224 96.0338 61.2314 96.4288 61.1319C96.8396 61.0272 97.1283 60.7618 97.1902 60.3127C97.2438 59.9231 97.0538 59.627 96.7459 59.4373C96.4254 59.24 96.0731 59.0971 95.7376 58.9252C95.1987 58.6496 94.6264 58.4225 94.131 58.0805C92.5804 57.0087 92.8725 54.7799 94.3285 53.8808C94.8966 53.5303 95.5117 53.3245 96.1878 53.3262C96.925 53.3279 97.6655 53.2811 98.3793 53.532C98.5182 53.5805 98.6588 53.6281 98.7952 53.6834C98.9508 53.7472 98.95 53.857 98.9031 54.0084C98.7901 54.3725 98.6839 54.7408 98.6027 55.1134C98.5441 55.3822 98.422 55.4137 98.1793 55.3439C97.7726 55.2257 97.3501 55.1636 96.9425 55.047C96.5158 54.9254 96.1217 55.0445 95.7485 55.2061C95.1234 55.4775 95.0305 56.1257 95.561 56.5578C95.8238 56.7722 96.151 56.91 96.4606 57.0589C96.9635 57.3005 97.4906 57.4936 97.9802 57.7598C98.8044 58.209 99.2981 58.9286 99.3458 59.8805C99.3977 60.9166 98.9994 61.7665 98.1149 62.3381C97.3383 62.8409 96.4798 62.9957 95.5811 62.9208Z" fill="white"/>
<path d="M27.4763 62.9215C26.7157 62.9887 25.9785 62.8501 25.2605 62.5915C24.8764 62.4528 24.8639 62.4222 24.9568 62.0122C25.0371 61.6566 25.1417 61.3061 25.2212 60.9497C25.2647 60.7549 25.3174 60.6783 25.5459 60.7515C26.1048 60.9301 26.6755 61.0722 27.2437 61.2202C27.6955 61.3384 28.1365 61.2278 28.5357 61.0416C29.2235 60.7209 29.2779 59.8447 28.6302 59.4381C28.216 59.1786 27.7474 59.0059 27.2964 58.8086C26.7366 58.5644 26.2077 58.2897 25.745 57.8652C24.6363 56.8469 24.7969 55.0835 25.8613 54.1537C26.4697 53.6229 27.1792 53.3524 27.9759 53.332C28.7457 53.3133 29.5197 53.2716 30.267 53.5327C30.3757 53.571 30.4854 53.605 30.5925 53.6459C30.7674 53.7131 30.8577 53.8075 30.7858 54.0261C30.6569 54.42 30.5439 54.8206 30.4519 55.2247C30.4084 55.4153 30.3222 55.4195 30.1741 55.3829C29.7155 55.2672 29.2545 55.1626 28.7976 55.0435C28.3558 54.9287 27.9457 55.0503 27.5625 55.2392C27.0085 55.5122 26.9207 56.0881 27.3826 56.5024C27.6345 56.7278 27.9549 56.8844 28.2637 57.0324C28.6629 57.2238 29.0913 57.3531 29.4888 57.5479C30.2511 57.9213 30.8837 58.4419 31.1255 59.3122C31.5087 60.6936 30.8268 62.0624 29.5021 62.6119C28.8528 62.8807 28.1792 62.9785 27.4763 62.9215Z" fill="white"/>
<path d="M18.1153 53.4309C19.1353 53.4309 20.1554 53.4284 21.1754 53.4318C21.6448 53.4335 21.6474 53.4386 21.654 53.8962C21.6582 54.2144 21.644 54.5325 21.6566 54.8498C21.6666 55.1127 21.5553 55.2037 21.3059 55.1986C20.7796 55.1884 20.2533 55.1952 19.7261 55.1969C19.1847 55.1986 19.1822 55.1986 19.1822 55.7354C19.1814 57.8433 19.1822 59.9504 19.1814 62.0584C19.1814 62.1757 19.173 62.2931 19.1822 62.4097C19.2065 62.6989 19.1102 62.8435 18.7964 62.8308C18.3362 62.812 17.8752 62.8146 17.4149 62.8299C17.1296 62.8393 17.0476 62.7117 17.0509 62.4412C17.061 61.622 17.0543 60.8019 17.0543 59.9819C17.0543 58.5766 17.0551 57.1713 17.0534 55.7668C17.0526 55.1994 17.0509 55.1994 16.4752 55.1977C15.9815 55.1969 15.4878 55.1867 14.9941 55.2011C14.7113 55.2096 14.5615 55.1339 14.5808 54.8107C14.6008 54.4772 14.5967 54.1412 14.5824 53.8077C14.5707 53.5279 14.6803 53.4241 14.9548 53.4283C15.7112 53.4394 16.4685 53.4318 17.2258 53.4318C17.5229 53.4309 17.8191 53.4309 18.1153 53.4309Z" fill="white"/>
<path d="M153.276 59.0189C153.276 60.106 153.278 61.1923 153.276 62.2795C153.274 62.8222 153.271 62.8239 152.718 62.8265C152.323 62.8282 151.928 62.8163 151.534 62.8299C151.266 62.8392 151.144 62.7457 151.154 62.4581C151.169 62.0405 151.157 61.6219 151.157 61.2043C151.157 59.3821 151.158 57.5591 151.156 55.737C151.155 55.2036 151.152 55.2011 150.643 55.1985C150.1 55.1951 149.558 55.1917 149.015 55.1985C148.79 55.2011 148.682 55.1186 148.687 54.8787C148.696 54.4942 148.694 54.1097 148.689 53.7252C148.686 53.5083 148.79 53.4309 148.991 53.4326C149.386 53.4368 149.78 53.4317 150.175 53.4317C151.869 53.4317 153.563 53.43 155.257 53.4326C155.75 53.4334 155.752 53.4385 155.757 53.9259C155.76 54.2271 155.745 54.5282 155.76 54.8285C155.774 55.116 155.648 55.2062 155.38 55.2002C154.854 55.1883 154.327 55.196 153.801 55.1977C153.278 55.1994 153.276 55.2002 153.276 55.7591C153.276 56.8446 153.276 57.9317 153.276 59.0189Z" fill="white"/>
<path d="M102.573 59.0442C102.573 57.9239 102.575 56.8044 102.571 55.6841C102.569 55.2196 102.55 55.2017 102.102 55.1975C101.56 55.1924 101.017 55.1873 100.475 55.1992C100.205 55.2051 100.085 55.109 100.096 54.8249C100.111 54.4744 100.11 54.1231 100.097 53.7718C100.088 53.5038 100.211 53.4213 100.455 53.4289C100.799 53.4392 101.145 53.4307 101.491 53.4307C103.217 53.4307 104.943 53.4289 106.67 53.4315C107.166 53.4324 107.167 53.4366 107.172 53.9215C107.176 54.2388 107.165 54.5569 107.173 54.8742C107.179 55.1116 107.075 55.1992 106.848 55.1966C106.257 55.1898 105.664 55.1915 105.073 55.1975C104.628 55.2017 104.608 55.2213 104.607 55.6875C104.604 57.8269 104.606 59.9663 104.605 62.1058C104.605 62.2393 104.598 62.3737 104.604 62.5064C104.617 62.7463 104.501 62.8297 104.277 62.8254C103.866 62.8178 103.455 62.828 103.044 62.8237C102.581 62.8195 102.574 62.8161 102.573 62.3524C102.57 61.2508 102.573 60.1475 102.573 59.0442Z" fill="white"/>
<path d="M32.6568 58.1375C32.6568 56.7331 32.6551 55.3286 32.6576 53.925C32.6585 53.4367 32.6635 53.435 33.1564 53.4308C33.5513 53.4274 33.9454 53.4248 34.3404 53.4325C34.7287 53.4402 34.7454 53.4623 34.7613 53.8689C34.7655 53.9854 34.763 54.1028 34.763 54.2202C34.763 56.2601 34.763 58.2992 34.763 60.3391C34.763 60.4564 34.7713 60.5738 34.7621 60.6904C34.7395 60.9719 34.8617 61.0689 35.137 61.0655C36.0081 61.0536 36.88 61.0587 37.752 61.0621C38.5126 61.0655 38.4364 60.9907 38.4431 61.7622C38.4448 61.963 38.4465 62.1637 38.4423 62.3636C38.4339 62.8187 38.4331 62.8204 37.9612 62.8255C37.5997 62.8289 37.2373 62.8264 36.8758 62.8264C35.6257 62.8264 34.3764 62.8289 33.1262 62.8247C32.666 62.823 32.6593 62.817 32.6585 62.3509C32.6551 60.9464 32.6568 59.542 32.6568 58.1375Z" fill="white"/>
<path d="M63.8622 58.0764C63.8622 56.6881 63.8597 55.3006 63.8631 53.9124C63.8639 53.4402 63.8706 53.4368 64.325 53.4317C64.7358 53.4275 65.1475 53.4266 65.5584 53.4317C65.9835 53.4377 65.9902 53.4419 65.9919 53.8902C65.9961 54.9604 65.9935 56.0305 65.9935 57.1007C65.9935 58.8394 65.9952 60.579 65.9927 62.3178C65.9919 62.8171 65.9868 62.8197 65.5057 62.8239C65.0948 62.8273 64.6831 62.8299 64.2723 62.8231C63.8739 62.8163 63.8647 62.8103 63.8639 62.3901C63.8597 60.9525 63.8622 59.5148 63.8622 58.0764Z" fill="white"/>
<path d="M84.1032 6.02102C83.3576 6.10098 82.7183 5.84153 82.1409 5.38727C82.089 5.34644 82.043 5.29795 81.9895 5.25882C81.6087 4.97725 81.6146 4.9798 81.4548 5.4162C81.1058 6.3732 80.5611 7.16857 79.7569 7.81508C78.4198 8.89032 76.9244 9.60998 75.2936 10.06C74.0468 10.4037 72.7907 10.7116 71.5431 11.0536C70.4344 11.3573 69.334 11.6899 68.3148 12.247C67.5893 12.6435 66.9258 13.1241 66.3266 13.7017C65.5844 14.4163 64.9183 15.1946 64.3853 16.0819C64.1209 16.5225 63.8665 16.9717 63.6389 17.4336C63.2121 18.3004 62.7511 19.1477 62.1595 19.9082C61.6473 20.5657 61.0315 21.1161 60.3085 21.5355C59.2818 22.1309 58.1563 22.4015 57.0041 22.5997C55.9263 22.7851 54.8452 22.9663 53.7783 23.2062C52.6612 23.4571 51.6236 23.942 50.7366 24.6719C49.9717 25.3014 49.3023 26.0406 48.8295 26.9423C48.6697 27.2477 48.4488 27.5199 48.2555 27.8066C47.9919 27.8066 47.7292 27.8066 47.4656 27.8066C47.1409 27.5803 46.8715 27.3098 46.7744 26.9032C46.7744 26.836 46.7744 26.7696 46.7744 26.7024C47.1141 25.8492 47.6154 25.1006 48.1911 24.3937C49.473 22.82 51.1349 21.8911 53.0411 21.3381C53.8795 21.0948 54.7372 20.9996 55.5924 20.8677C56.5129 20.7256 57.4383 20.6159 58.3228 20.2893C59.3897 19.8945 60.2792 19.2719 60.8825 18.2791C61.2616 17.6556 61.6281 17.0227 61.9628 16.3745C62.3586 15.6055 62.7502 14.8348 63.269 14.144C63.9284 13.2661 64.6924 12.4912 65.5233 11.7766C66.2187 11.1786 66.9776 10.6861 67.7968 10.3041C69.0043 9.74184 70.2737 9.35138 71.5624 9.02047C72.9096 8.67425 74.2518 8.30166 75.5873 7.91035C76.4433 7.6594 77.2282 7.23832 77.9637 6.72707C78.5394 6.32726 79.0281 5.84153 79.3812 5.22735C79.4691 5.07423 79.5009 4.88878 79.5578 4.7178C79.5695 4.71269 79.5829 4.70929 79.5921 4.70164C79.5979 4.69653 79.598 4.68462 79.6013 4.67526C79.5871 4.68973 79.5728 4.70419 79.5586 4.71865C79.0934 4.7867 78.629 4.88793 78.1612 4.91175C77.8951 4.92536 77.6165 4.83094 77.3545 4.75012C77.1612 4.69058 77.1378 4.56638 77.2583 4.4073C77.3378 4.30267 77.4357 4.21165 77.5278 4.11723C78.7536 2.8676 79.9804 1.61967 81.2054 0.369189C81.32 0.251797 81.4246 0.123347 81.5334 0C81.5995 0 81.6648 0 81.7309 0C81.9259 0.491685 82.1158 0.985072 82.3158 1.47421C82.7342 2.49926 83.1593 3.52176 83.5802 4.54596C83.7551 4.9713 83.9275 5.39663 84.1015 5.82196C84.1032 5.88661 84.1032 5.95382 84.1032 6.02102Z" fill="#FF8200"/>
</svg>
