<svg width="93" height="75" viewBox="0 0 93 75" fill="none" xmlns="http://www.w3.org/2000/svg">
<path d="M2.45312 44.237H0.453125V44.2472L0.45323 44.2575L2.45312 44.237ZM8.35938 9.97137L6.80052 8.71837L6.79571 8.7244L8.35938 9.97137ZM42.5312 9.9245L40.9714 11.1763L40.9754 11.1812L42.5312 9.9245ZM48.5781 30.9714H50.5781V30.9611L50.578 30.9509L48.5781 30.9714ZM32.6875 17.4245L30.9652 18.4413L30.9725 18.4535L30.9799 18.4657L32.6875 17.4245ZM18.3906 17.237L16.691 16.1828L16.6873 16.1888L18.3906 17.237ZM16 28.7214L14.0003 28.6855L14 28.7034V28.7214H16ZM18.25 57.737L16.4988 58.7032L16.5055 58.7152L16.5123 58.7271L18.25 57.737ZM35.0312 45.9714L37.0311 45.9948L37.0312 45.9831V45.9714H35.0312ZM46.5781 43.5339C46.5781 52.7336 44.6688 59.4454 41.1427 63.9588L44.2948 66.4214C48.5812 60.9348 50.5781 53.2092 50.5781 43.5339H46.5781ZM41.1427 63.9588C37.6883 68.3804 32.607 70.6901 25.5625 70.6901V74.6901C33.5805 74.6901 39.9367 71.9998 44.2948 66.4214L41.1427 63.9588ZM25.5625 70.6901C18.6081 70.6901 13.5467 68.4237 10.0598 64.0789L6.9402 66.5826C11.3283 72.0503 17.6419 74.6901 25.5625 74.6901V70.6901ZM10.0598 64.0789C6.50544 59.6501 4.5442 53.1221 4.45302 44.2165L0.45323 44.2575C0.549547 53.6644 2.61956 61.1989 6.9402 66.5826L10.0598 64.0789ZM4.45312 44.237V31.6745H0.453125V44.237H4.45312ZM4.45312 31.6745C4.45312 22.3759 6.38016 15.661 9.92304 11.2183L6.79571 8.7244C2.46359 14.1567 0.453125 21.9106 0.453125 31.6745H4.45312ZM9.91822 11.2244C13.4392 6.84399 18.5193 4.56512 25.4688 4.56512V0.565125C17.5432 0.565125 11.2171 3.22376 6.80053 8.71838L9.91822 11.2244ZM25.4688 4.56512C32.4231 4.56512 37.4846 6.83154 40.9715 11.1763L44.091 8.67269C39.7029 3.20496 33.3894 0.565125 25.4688 0.565125V4.56512ZM40.9754 11.1812C44.5254 15.5764 46.487 22.0852 46.5782 30.9919L50.578 30.9509C50.4817 21.5451 48.4121 14.0226 44.0871 8.66783L40.9754 11.1812ZM46.5781 30.9714V43.5339H50.5781V30.9714H46.5781ZM37.0312 29.7526C37.0312 24.0031 36.2536 19.4313 34.3951 16.3833L30.9799 18.4657C32.2464 20.5427 33.0312 24.1897 33.0312 29.7526H37.0312ZM34.4098 16.4077C32.4815 13.1415 29.381 11.5339 25.4688 11.5339V15.5339C28.119 15.5339 29.831 16.52 30.9652 18.4413L34.4098 16.4077ZM25.4688 11.5339C21.6698 11.5339 18.6275 13.0607 16.691 16.1828L20.0902 18.2912C21.2162 16.4758 22.8927 15.5339 25.4688 15.5339V11.5339ZM16.6873 16.1888C14.9013 19.091 14.096 23.3606 14.0003 28.6855L17.9997 28.7573C18.0915 23.6447 18.8799 20.258 20.0939 18.2852L16.6873 16.1888ZM14 28.7214V45.3151H18V28.7214H14ZM14 45.3151C14 50.9866 14.7524 55.5378 16.4988 58.7032L20.0012 56.7708C18.7476 54.4987 18 50.7687 18 45.3151H14ZM16.5123 58.7271C18.4331 62.0984 21.5713 63.7682 25.5625 63.7682V59.7682C22.8662 59.7682 21.1294 58.7506 19.9877 56.7469L16.5123 58.7271ZM25.5625 63.7682C29.4982 63.7682 32.6055 62.1642 34.4747 58.8631L30.994 56.8921C29.9258 58.7786 28.2518 59.7682 25.5625 59.7682V63.7682ZM34.4747 58.8631C36.1946 55.8259 36.9673 51.447 37.0311 45.9948L33.0314 45.948C32.9702 51.1832 32.2117 54.7418 30.994 56.8921L34.4747 58.8631ZM37.0312 45.9714V29.7526H33.0312V45.9714H37.0312ZM90.6719 71.7526V73.7526H92.6719V71.7526H90.6719ZM77.125 71.7526H75.125V73.7526H77.125V71.7526ZM77.125 19.5339H79.125V16.8196L76.5325 17.6236L77.125 19.5339ZM60.9531 24.5495H58.9531V27.2638L61.5456 26.4597L60.9531 24.5495ZM60.9531 13.5339L60.2787 11.651L58.9531 12.1259V13.5339H60.9531ZM89.2188 3.40887V1.40887H88.8713L88.5443 1.52603L89.2188 3.40887ZM90.6719 3.40887H92.6719V1.40887H90.6719V3.40887ZM90.6719 69.7526H77.125V73.7526H90.6719V69.7526ZM79.125 71.7526V19.5339H75.125V71.7526H79.125ZM76.5325 17.6236L60.3607 22.6393L61.5456 26.4597L77.7175 21.4441L76.5325 17.6236ZM62.9531 24.5495V13.5339H58.9531V24.5495H62.9531ZM61.6276 15.4167L89.8932 5.29172L88.5443 1.52603L60.2787 11.651L61.6276 15.4167ZM89.2188 5.40887H90.6719V1.40887H89.2188V5.40887ZM88.6719 3.40887V71.7526H92.6719V3.40887H88.6719Z" fill="white" fill-opacity="0.2"/>
</svg>
