<svg width="107" height="75" viewBox="0 0 107 75" fill="none" xmlns="http://www.w3.org/2000/svg">
<path d="M2.45312 44.2351H0.453125V44.2453L0.45323 44.2556L2.45312 44.2351ZM8.35938 9.96948L6.80052 8.71648L6.79571 8.72251L8.35938 9.96948ZM42.5312 9.92261L40.9714 11.1744L40.9754 11.1793L42.5312 9.92261ZM48.5781 30.9695H50.5781V30.9592L50.578 30.949L48.5781 30.9695ZM32.6875 17.4226L30.9652 18.4394L30.9725 18.4516L30.9799 18.4638L32.6875 17.4226ZM18.3906 17.2351L16.691 16.1809L16.6873 16.1869L18.3906 17.2351ZM16 28.7195L14.0003 28.6836L14 28.7015V28.7195H16ZM18.25 57.7351L16.4988 58.7013L16.5055 58.7133L16.5123 58.7252L18.25 57.7351ZM35.0312 45.9695L37.0311 45.9929L37.0312 45.9812V45.9695H35.0312ZM46.5781 43.532C46.5781 52.7317 44.6688 59.4436 41.1427 63.9569L44.2948 66.4195C48.5812 60.9329 50.5781 53.2073 50.5781 43.532H46.5781ZM41.1427 63.9569C37.6883 68.3785 32.607 70.6882 25.5625 70.6882V74.6882C33.5805 74.6882 39.9367 71.9979 44.2948 66.4195L41.1427 63.9569ZM25.5625 70.6882C18.6081 70.6882 13.5467 68.4218 10.0598 64.077L6.9402 66.5807C11.3283 72.0484 17.6419 74.6882 25.5625 74.6882V70.6882ZM10.0598 64.077C6.50544 59.6482 4.5442 53.1202 4.45302 44.2146L0.45323 44.2556C0.549547 53.6626 2.61956 61.197 6.9402 66.5807L10.0598 64.077ZM4.45312 44.2351V31.6726H0.453125V44.2351H4.45312ZM4.45312 31.6726C4.45312 22.374 6.38016 15.6591 9.92304 11.2165L6.79571 8.72251C2.46359 14.1548 0.453125 21.9087 0.453125 31.6726H4.45312ZM9.91822 11.2225C13.4392 6.84209 18.5193 4.56323 25.4688 4.56323V0.563232C17.5432 0.563232 11.2171 3.22187 6.80053 8.71649L9.91822 11.2225ZM25.4688 4.56323C32.4231 4.56323 37.4846 6.82964 40.9715 11.1744L44.091 8.6708C39.7029 3.20307 33.3894 0.563232 25.4688 0.563232V4.56323ZM40.9754 11.1793C44.5254 15.5745 46.487 22.0833 46.5782 30.99L50.578 30.949C50.4817 21.5432 48.4121 14.0207 44.0871 8.66593L40.9754 11.1793ZM46.5781 30.9695V43.532H50.5781V30.9695H46.5781ZM37.0312 29.7507C37.0312 24.0012 36.2536 19.4294 34.3951 16.3814L30.9799 18.4638C32.2464 20.5408 33.0312 24.1878 33.0312 29.7507H37.0312ZM34.4098 16.4058C32.4815 13.1396 29.381 11.532 25.4688 11.532V15.532C28.119 15.532 29.831 16.5181 30.9652 18.4394L34.4098 16.4058ZM25.4688 11.532C21.6698 11.532 18.6275 13.0588 16.691 16.1809L20.0902 18.2893C21.2162 16.474 22.8927 15.532 25.4688 15.532V11.532ZM16.6873 16.1869C14.9013 19.0891 14.096 23.3587 14.0003 28.6836L17.9997 28.7554C18.0915 23.6428 18.8799 20.2561 20.0939 18.2833L16.6873 16.1869ZM14 28.7195V45.3132H18V28.7195H14ZM14 45.3132C14 50.9847 14.7524 55.5359 16.4988 58.7013L20.0012 56.769C18.7476 54.4968 18 50.7668 18 45.3132H14ZM16.5123 58.7252C18.4331 62.0965 21.5713 63.7664 25.5625 63.7664V59.7664C22.8662 59.7664 21.1294 58.7487 19.9877 56.745L16.5123 58.7252ZM25.5625 63.7664C29.4982 63.7664 32.6055 62.1623 34.4747 58.8612L30.994 56.8902C29.9258 58.7767 28.2518 59.7664 25.5625 59.7664V63.7664ZM34.4747 58.8612C36.1946 55.824 36.9673 51.4451 37.0311 45.9929L33.0314 45.9461C32.9702 51.1813 32.2117 54.7399 30.994 56.8902L34.4747 58.8612ZM37.0312 45.9695V29.7507H33.0312V45.9695H37.0312ZM104.547 71.7507V73.7507H106.547V71.7507H104.547ZM57.7656 71.7507H55.7656V73.7507H57.7656V71.7507ZM57.7656 62.4695L56.3071 61.101L55.7656 61.6781V62.4695H57.7656ZM79.8438 38.9382L81.3023 40.3067L81.3108 40.2976L81.3192 40.2884L79.8438 38.9382ZM86.5469 30.2664L84.8281 29.2438L84.8233 29.2519L84.8185 29.26L86.5469 30.2664ZM86.4531 16.1101L84.948 17.4271L84.9539 17.4338L84.9598 17.4405L86.4531 16.1101ZM72.625 16.6726L71.0923 15.3878L71.0904 15.39L72.625 16.6726ZM70 24.9695V26.9695H72V24.9695H70ZM56.4062 24.9695H54.4062V26.9695H56.4062V24.9695ZM59.3594 13.5789L57.6306 12.573L57.6239 12.5849L59.3594 13.5789ZM67.7969 5.51636L68.7396 7.28026L68.7514 7.27388L67.7969 5.51636ZM96.4844 7.62573L95.1708 9.13391L95.1768 9.13911L96.4844 7.62573ZM90.7188 44.4695L92.1699 45.8458L92.183 45.8319L92.1959 45.8178L90.7188 44.4695ZM75.2031 60.8289L73.752 59.4526L70.5498 62.8289H75.2031V60.8289ZM104.547 60.8289H106.547V58.8289H104.547V60.8289ZM104.547 69.7507H57.7656V73.7507H104.547V69.7507ZM59.7656 71.7507V62.4695H55.7656V71.7507H59.7656ZM59.2242 63.8379L81.3023 40.3067L78.3852 37.5698L56.3071 61.101L59.2242 63.8379ZM81.3192 40.2884C84.3988 36.9231 86.7373 33.9139 88.2752 31.2727L84.8185 29.26C83.4814 31.5563 81.3512 34.3284 78.3683 37.588L81.3192 40.2884ZM88.2657 31.2889C89.8654 28.6001 90.75 25.9052 90.75 23.2351H86.75C86.75 25.0026 86.1659 26.9951 84.8281 29.2438L88.2657 31.2889ZM90.75 23.2351C90.75 19.8718 89.896 16.968 87.9464 14.7797L84.9598 17.4405C86.0727 18.6897 86.75 20.5359 86.75 23.2351H90.75ZM87.9583 14.7931C85.964 12.5139 83.1713 11.4851 79.8906 11.4851V15.4851C82.2974 15.4851 83.8798 16.2063 84.948 17.4271L87.9583 14.7931ZM79.8906 11.4851C76.3064 11.4851 73.2962 12.7585 71.0923 15.3878L74.1577 17.9574C75.5163 16.3367 77.3498 15.4851 79.8906 15.4851V11.4851ZM71.0904 15.39C68.9683 17.929 68 21.1881 68 24.9695H72C72 21.8759 72.7817 19.6037 74.1596 17.9552L71.0904 15.39ZM70 22.9695H56.4062V26.9695H70V22.9695ZM58.4062 24.9695C58.4062 21.1441 59.3081 17.6926 61.0949 14.5728L57.6239 12.5849C55.4731 16.3401 54.4062 20.4824 54.4062 24.9695H58.4062ZM61.0881 14.5846C62.895 11.479 65.4303 9.04899 68.7396 7.28022L66.8541 3.75249C62.9134 5.85873 59.8237 8.80375 57.6307 12.5731L61.0881 14.5846ZM68.7514 7.27388C72.0513 5.4817 75.8261 4.56323 80.125 4.56323V0.563232C75.2364 0.563232 70.7925 1.61351 66.8424 3.75883L68.7514 7.27388ZM80.125 4.56323C86.8518 4.56323 91.7751 6.1763 95.1708 9.1339L97.7979 6.11757C93.4437 2.32516 87.4607 0.563232 80.125 0.563232V4.56323ZM95.1768 9.13911C98.5582 12.0606 100.344 16.2246 100.344 21.9226H104.344C104.344 15.3082 102.223 9.94086 97.7919 6.11236L95.1768 9.13911ZM100.344 21.9226C100.344 24.9411 99.5632 28.0741 97.9299 31.3407L101.508 33.1295C103.374 29.3961 104.344 25.6541 104.344 21.9226H100.344ZM97.9299 31.3407C96.2969 34.6066 93.4331 38.5289 89.2416 43.1212L92.1959 45.8178C96.5044 41.0975 99.6406 36.8636 101.508 33.1295L97.9299 31.3407ZM89.2676 43.0932L73.752 59.4526L76.6543 62.2052L92.1699 45.8458L89.2676 43.0932ZM75.2031 62.8289H104.547V58.8289H75.2031V62.8289ZM102.547 60.8289V71.7507H106.547V60.8289H102.547Z" fill="white" fill-opacity="0.2"/>
</svg>
