<svg width="106" height="75" viewBox="0 0 106 75" fill="none" xmlns="http://www.w3.org/2000/svg">
<path d="M2.45312 44.237H0.453125V44.2472L0.45323 44.2575L2.45312 44.237ZM8.35938 9.97137L6.80052 8.71837L6.79571 8.7244L8.35938 9.97137ZM42.5312 9.9245L40.9714 11.1763L40.9754 11.1812L42.5312 9.9245ZM48.5781 30.9714H50.5781V30.9611L50.578 30.9509L48.5781 30.9714ZM32.6875 17.4245L30.9652 18.4413L30.9725 18.4535L30.9799 18.4657L32.6875 17.4245ZM18.3906 17.237L16.691 16.1828L16.6873 16.1888L18.3906 17.237ZM16 28.7214L14.0003 28.6855L14 28.7034V28.7214H16ZM18.25 57.737L16.4988 58.7032L16.5055 58.7152L16.5123 58.7271L18.25 57.737ZM35.0312 45.9714L37.0311 45.9948L37.0312 45.9831V45.9714H35.0312ZM46.5781 43.5339C46.5781 52.7336 44.6688 59.4454 41.1427 63.9588L44.2948 66.4214C48.5812 60.9348 50.5781 53.2092 50.5781 43.5339H46.5781ZM41.1427 63.9588C37.6883 68.3804 32.607 70.6901 25.5625 70.6901V74.6901C33.5805 74.6901 39.9367 71.9998 44.2948 66.4214L41.1427 63.9588ZM25.5625 70.6901C18.6081 70.6901 13.5467 68.4237 10.0598 64.0789L6.9402 66.5826C11.3283 72.0503 17.6419 74.6901 25.5625 74.6901V70.6901ZM10.0598 64.0789C6.50544 59.6501 4.5442 53.1221 4.45302 44.2165L0.45323 44.2575C0.549547 53.6644 2.61956 61.1989 6.9402 66.5826L10.0598 64.0789ZM4.45312 44.237V31.6745H0.453125V44.237H4.45312ZM4.45312 31.6745C4.45312 22.3759 6.38016 15.661 9.92304 11.2183L6.79571 8.7244C2.46359 14.1567 0.453125 21.9106 0.453125 31.6745H4.45312ZM9.91822 11.2244C13.4392 6.84399 18.5193 4.56512 25.4688 4.56512V0.565125C17.5432 0.565125 11.2171 3.22376 6.80053 8.71838L9.91822 11.2244ZM25.4688 4.56512C32.4231 4.56512 37.4846 6.83154 40.9715 11.1763L44.091 8.67269C39.7029 3.20496 33.3894 0.565125 25.4688 0.565125V4.56512ZM40.9754 11.1812C44.5254 15.5764 46.487 22.0852 46.5782 30.9919L50.578 30.9509C50.4817 21.5451 48.4121 14.0226 44.0871 8.66783L40.9754 11.1812ZM46.5781 30.9714V43.5339H50.5781V30.9714H46.5781ZM37.0312 29.7526C37.0312 24.0031 36.2536 19.4313 34.3951 16.3833L30.9799 18.4657C32.2464 20.5427 33.0312 24.1897 33.0312 29.7526H37.0312ZM34.4098 16.4077C32.4815 13.1415 29.381 11.5339 25.4688 11.5339V15.5339C28.119 15.5339 29.831 16.52 30.9652 18.4413L34.4098 16.4077ZM25.4688 11.5339C21.6698 11.5339 18.6275 13.0607 16.691 16.1828L20.0902 18.2912C21.2162 16.4758 22.8927 15.5339 25.4688 15.5339V11.5339ZM16.6873 16.1888C14.9013 19.091 14.096 23.3606 14.0003 28.6855L17.9997 28.7573C18.0915 23.6447 18.8799 20.258 20.0939 18.2852L16.6873 16.1888ZM14 28.7214V45.3151H18V28.7214H14ZM14 45.3151C14 50.9866 14.7524 55.5378 16.4988 58.7032L20.0012 56.7708C18.7476 54.4987 18 50.7687 18 45.3151H14ZM16.5123 58.7271C18.4331 62.0984 21.5713 63.7682 25.5625 63.7682V59.7682C22.8662 59.7682 21.1294 58.7506 19.9877 56.7469L16.5123 58.7271ZM25.5625 63.7682C29.4982 63.7682 32.6055 62.1642 34.4747 58.8631L30.994 56.8921C29.9258 58.7786 28.2518 59.7682 25.5625 59.7682V63.7682ZM34.4747 58.8631C36.1946 55.8259 36.9673 51.447 37.0311 45.9948L33.0314 45.948C32.9702 51.1832 32.2117 54.7418 30.994 56.8921L34.4747 58.8631ZM37.0312 45.9714V29.7526H33.0312V45.9714H37.0312ZM71.5469 31.6276V29.6276H69.5469V31.6276H71.5469ZM86.4062 15.7839L85.0346 17.2395L85.0416 17.246L85.0485 17.2524L86.4062 15.7839ZM73.1406 15.6432L74.3934 17.2023L74.4018 17.1955L74.4101 17.1887L73.1406 15.6432ZM70.5156 21.1745V23.1745H72.5156V21.1745H70.5156ZM56.9688 21.1745H54.9688V23.1745H56.9688V21.1745ZM59.8281 11.612L58.1753 10.4859L58.1726 10.4899L59.8281 11.612ZM67.8906 4.95575L67.0556 3.13839L67.0494 3.14128L67.8906 4.95575ZM96.2969 7.76825L95.0039 9.29415L95.0108 9.29989L96.2969 7.76825ZM92.0781 36.6901L91.2505 34.8694L86.7584 36.9113L91.4045 38.5733L92.0781 36.6901ZM100.656 42.8776L99.0038 44.0043L99.0081 44.0107L99.0125 44.017L100.656 42.8776ZM96.8594 67.2057L95.5876 65.6622L95.5822 65.6666L96.8594 67.2057ZM62.5938 67.2995L61.3134 68.836L61.3188 68.8405L62.5938 67.2995ZM56.125 53.0495V51.0495H54.125V53.0495H56.125ZM69.6719 53.0495H71.6719V51.0495H69.6719V53.0495ZM72.5312 59.3307L71.2338 60.8528L71.2399 60.858L71.246 60.8631L72.5312 59.3307ZM87.2031 59.237L88.566 60.7008L88.5669 60.6999L87.2031 59.237ZM71.5469 42.2214H69.5469V44.2214H71.5469V42.2214ZM71.5469 33.6276H78.7656V29.6276H71.5469V33.6276ZM78.7656 33.6276C82.5049 33.6276 85.6733 32.6924 87.8464 30.4373L84.9661 27.6617C83.8267 28.8441 81.9013 29.6276 78.7656 29.6276V33.6276ZM87.8464 30.4373C89.929 28.2761 90.8906 25.4614 90.8906 22.2057H86.8906C86.8906 24.6376 86.196 26.3854 84.9661 27.6617L87.8464 30.4373ZM90.8906 22.2057C90.8906 19.0299 89.9174 16.3062 87.764 14.3153L85.0485 17.2524C86.2076 18.324 86.8906 19.8816 86.8906 22.2057H90.8906ZM87.7779 14.3283C85.6842 12.3555 82.8891 11.487 79.6562 11.487V15.487C82.1734 15.487 83.8783 16.1498 85.0346 17.2395L87.7779 14.3283ZM79.6562 11.487C76.6705 11.487 74.0302 12.3243 71.8711 14.0978L74.4101 17.1887C75.7511 16.0872 77.4545 15.487 79.6562 15.487V11.487ZM71.8878 14.0842C69.6566 15.8772 68.5156 18.2986 68.5156 21.1745H72.5156C72.5156 19.4879 73.1246 18.2218 74.3934 17.2023L71.8878 14.0842ZM70.5156 19.1745H56.9688V23.1745H70.5156V19.1745ZM58.9688 21.1745C58.9688 17.9915 59.8131 15.1988 61.4837 12.7341L58.1726 10.4899C56.0306 13.6502 54.9688 17.2325 54.9688 21.1745H58.9688ZM61.481 12.7381C63.1949 10.2225 65.588 8.22785 68.7319 6.77022L67.0494 3.14128C63.3183 4.87115 60.3364 7.31397 58.1753 10.4859L61.481 12.7381ZM68.7256 6.7731C71.9099 5.31006 75.4342 4.56512 79.3281 4.56512V0.565125C74.9095 0.565125 70.8089 1.41393 67.0556 3.1384L68.7256 6.7731ZM79.3281 4.56512C86.2378 4.56512 91.3797 6.22321 95.0039 9.29414L97.5898 6.24236C93.0266 2.37579 86.856 0.565125 79.3281 0.565125V4.56512ZM95.0108 9.29989C98.5881 12.3037 100.438 16.4578 100.438 22.0182H104.438C104.438 15.4537 102.193 10.1078 97.583 6.23661L95.0108 9.29989ZM100.438 22.0182C100.438 24.7042 99.6281 27.1708 97.9598 29.4681L101.196 31.8184C103.341 28.8657 104.438 25.5823 104.438 22.0182H100.438ZM97.9598 29.4681C96.2667 31.7996 94.0449 33.5992 91.2505 34.8694L92.9057 38.5109C96.2989 36.9685 99.0771 34.7369 101.196 31.8184L97.9598 29.4681ZM91.4045 38.5733C94.942 39.8387 97.4165 41.6763 99.0038 44.0043L102.309 41.7509C100.146 38.579 96.9018 36.2915 92.7518 34.807L91.4045 38.5733ZM99.0125 44.017C100.659 46.3926 101.516 49.2337 101.516 52.6276H105.516C105.516 48.5216 104.466 44.8626 102.3 41.7382L99.0125 44.017ZM101.516 52.6276C101.516 58.13 99.5359 62.409 95.5876 65.6622L98.1312 68.7493C103.058 64.69 105.516 59.2503 105.516 52.6276H101.516ZM95.5822 65.6666C91.6234 68.9516 86.2725 70.6901 79.3281 70.6901V74.6901C86.9463 74.6901 93.2829 72.7724 98.1365 68.7449L95.5822 65.6666ZM79.3281 70.6901C72.8803 70.6901 67.7831 68.9971 63.8687 65.7585L61.3188 68.8405C66.0919 72.7894 72.151 74.6901 79.3281 74.6901V70.6901ZM63.8741 65.7631C60.0442 62.5714 58.125 58.3977 58.125 53.0495H54.125C54.125 59.5138 56.5183 64.8401 61.3134 68.8359L63.8741 65.7631ZM56.125 55.0495H69.6719V51.0495H56.125V55.0495ZM67.6719 53.0495C67.6719 56.1822 68.8701 58.8378 71.2338 60.8528L73.8287 57.8087C72.3799 56.5737 71.6719 55.0418 71.6719 53.0495H67.6719ZM71.246 60.8631C73.5846 62.8245 76.43 63.7682 79.6562 63.7682V59.7682C77.2575 59.7682 75.3529 59.087 73.8165 57.7984L71.246 60.8631ZM79.6562 63.7682C83.2244 63.7682 86.2829 62.8264 88.566 60.7008L85.8403 57.7732C84.4984 59.0226 82.5256 59.7682 79.6562 59.7682V63.7682ZM88.5669 60.6999C90.8657 58.557 91.9688 55.7363 91.9688 52.4401H87.9688C87.9688 54.7689 87.2281 56.4795 85.8394 57.7741L88.5669 60.6999ZM91.9688 52.4401C91.9688 48.6734 90.9232 45.4958 88.501 43.2956C86.1153 41.1286 82.732 40.2214 78.7188 40.2214V44.2214C82.2055 44.2214 84.4472 45.0173 85.8115 46.2565C87.1393 47.4626 87.9688 49.3944 87.9688 52.4401H91.9688ZM78.7188 40.2214H71.5469V44.2214H78.7188V40.2214ZM73.5469 42.2214V31.6276H69.5469V42.2214H73.5469Z" fill="white" fill-opacity="0.2"/>
</svg>
