<svg width="58" height="58" viewBox="0 0 58 58" fill="none" xmlns="http://www.w3.org/2000/svg">
<path d="M2.75 18.6875H0.875V14.9375C0.876396 13.6948 1.3707 12.5033 2.24948 11.6245C3.12825 10.7457 4.31973 10.2514 5.5625 10.25H37.4375V8.37503H35.5625C35.3771 8.37504 35.1958 8.32006 35.0416 8.21705C34.8875 8.11403 34.7673 7.96761 34.6963 7.7963C34.6254 7.62499 34.6068 7.43649 34.643 7.25463C34.6792 7.07277 34.7685 6.90572 34.8996 6.7746L40.5246 1.1496C40.6116 1.06254 40.715 0.993484 40.8287 0.946368C40.9425 0.899251 41.0644 0.875 41.1875 0.875C41.3106 0.875 41.4325 0.899251 41.5463 0.946368C41.66 0.993484 41.7634 1.06254 41.8504 1.1496L47.4754 6.7746C47.6065 6.90572 47.6958 7.07277 47.732 7.25463C47.7682 7.43649 47.7496 7.62499 47.6787 7.7963C47.6077 7.96761 47.4875 8.11403 47.3334 8.21705C47.1792 8.32006 46.9979 8.37504 46.8125 8.37503H44.9375V10.25H48.6875C49.9303 10.2514 51.1217 10.7457 52.0005 11.6245C52.8793 12.5033 53.3736 13.6948 53.375 14.9375V33.6875H51.5V14.9375C51.4991 14.1919 51.2025 13.477 50.6753 12.9498C50.148 12.4225 49.4332 12.1259 48.6875 12.125H44.9375V29H43.0625V7.43753C43.0625 7.18889 43.1613 6.95044 43.3371 6.77462C43.5129 6.59881 43.7514 6.50003 44 6.50003H44.5493L41.1875 3.13828L37.8257 6.50003H38.375C38.6236 6.50003 38.8621 6.59881 39.0379 6.77462C39.2137 6.95044 39.3125 7.18889 39.3125 7.43753V29.9375H37.4375V12.125H5.5625C4.81685 12.1259 4.10198 12.4225 3.57472 12.9498C3.04746 13.477 2.75087 14.1919 2.75 14.9375V18.6875ZM5.5625 47.75H21.1774L18.9274 55.25H16.8125V57.125H37.4375V55.25H35.3226L34.1168 51.2305L32.3207 51.7696L33.365 55.25H20.8845L23.1345 47.75H29.9375V45.875H5.5625C4.81685 45.8742 4.10198 45.5776 3.57472 45.0503C3.04746 44.5231 2.75087 43.8082 2.75 43.0625V42.125H29V40.25H2.75V20.5625H0.875V43.0625C0.876396 44.3053 1.3707 45.4968 2.24948 46.3756C3.12825 47.2543 4.31973 47.7486 5.5625 47.75ZM33.6875 31.8125V16.8125H29.9375V38.375H5.5625V36.5H9.3125V29C9.3125 28.7514 9.41127 28.5129 9.58709 28.3371C9.7629 28.1613 10.0014 28.0625 10.25 28.0625H15.875C16.1236 28.0625 16.3621 28.1613 16.5379 28.3371C16.7137 28.5129 16.8125 28.7514 16.8125 29V36.5H18.6875V22.4375C18.6875 22.1889 18.7863 21.9504 18.9621 21.7746C19.1379 21.5988 19.3764 21.5 19.625 21.5H25.25C25.4986 21.5 25.7371 21.5988 25.9129 21.7746C26.0887 21.9504 26.1875 22.1889 26.1875 22.4375V36.5H28.0625V15.875C28.0625 15.6264 28.1613 15.3879 28.3371 15.2121C28.5129 15.0363 28.7514 14.9375 29 14.9375H34.625C34.8736 14.9375 35.1121 15.0363 35.2879 15.2121C35.4637 15.3879 35.5625 15.6264 35.5625 15.875V31.8125H33.6875ZM14.9375 29.9375H11.1875V36.5H14.9375V29.9375ZM24.3125 23.375H20.5625V36.5H24.3125V23.375ZM5.5625 14V15.875H7.4375V14H5.5625ZM11.1875 14H9.3125V15.875H11.1875V14ZM13.0625 14V15.875H14.9375V14H13.0625ZM56.3008 52.3242C56.8265 52.8527 57.1226 53.5671 57.125 54.3125C57.1253 54.682 57.0528 55.0479 56.9116 55.3892C56.7704 55.7306 56.5632 56.0408 56.302 56.302C56.0408 56.5633 55.7306 56.7704 55.3892 56.9116C55.0478 57.0529 54.6819 57.1254 54.3125 57.125C53.5679 57.1185 52.855 56.823 52.3242 56.3009L47.8367 51.8135C45.4763 53.2059 42.689 53.6896 39.9975 53.1739C37.3059 52.6581 34.8949 51.1783 33.2164 49.012C31.5379 46.8456 30.7072 44.1414 30.8801 41.4063C31.0529 38.6712 32.2174 36.0931 34.1552 34.1553C36.0931 32.2174 38.6712 31.0529 41.4063 30.8801C44.1413 30.7073 46.8455 31.538 49.0119 33.2164C51.1783 34.8949 52.6581 37.306 53.1738 39.9975C53.6896 42.6891 53.2059 45.4763 51.8135 47.8368L56.3008 52.3242ZM51.5 42.125C51.5 40.2708 50.9502 38.4583 49.92 36.9166C48.8899 35.3749 47.4257 34.1732 45.7127 33.4637C43.9996 32.7541 42.1146 32.5684 40.296 32.9302C38.4775 33.2919 36.807 34.1848 35.4959 35.4959C34.1848 36.807 33.2919 38.4775 32.9301 40.2961C32.5684 42.1146 32.7541 43.9996 33.4636 45.7127C34.1732 47.4258 35.3748 48.8899 36.9165 49.9201C38.4582 50.9502 40.2708 51.5 42.125 51.5C44.6105 51.4972 46.9935 50.5086 48.751 48.751C50.5085 46.9935 51.4972 44.6106 51.5 42.125ZM54.9748 53.6502L50.7107 49.3859C50.3064 49.8633 49.8632 50.3064 49.3858 50.7108L53.6502 54.9749C53.7363 55.0656 53.8396 55.1381 53.9542 55.1882C54.0688 55.2383 54.1923 55.2649 54.3173 55.2666C54.4423 55.2682 54.5664 55.2448 54.6823 55.1977C54.7981 55.1506 54.9034 55.0807 54.9918 54.9923C55.0802 54.9039 55.15 54.7986 55.1971 54.6828C55.2443 54.567 55.2677 54.4428 55.2661 54.3178C55.2644 54.1928 55.2378 54.0693 55.1877 53.9547C55.1376 53.8402 55.0651 53.7368 54.9744 53.6507L54.9748 53.6502ZM49.625 42.125C49.625 43.6084 49.1851 45.0584 48.361 46.2918C47.5369 47.5252 46.3656 48.4865 44.9951 49.0541C43.6247 49.6218 42.1167 49.7703 40.6618 49.4809C39.207 49.1915 37.8706 48.4772 36.8217 47.4283C35.7728 46.3794 35.0585 45.0431 34.7691 43.5882C34.4797 42.1334 34.6282 40.6254 35.1959 39.2549C35.7636 37.8845 36.7249 36.7131 37.9582 35.889C39.1916 35.0649 40.6416 34.625 42.125 34.625C44.1134 34.6273 46.0198 35.4182 47.4258 36.8242C48.8319 38.2302 49.6228 40.1366 49.625 42.125ZM47.75 42.125C47.75 41.0125 47.4201 39.925 46.802 39C46.1839 38.0749 45.3054 37.354 44.2776 36.9282C43.2498 36.5025 42.1188 36.3911 41.0276 36.6081C39.9365 36.8252 38.9342 37.3609 38.1475 38.1476C37.3609 38.9342 36.8251 39.9365 36.6081 41.0277C36.391 42.1188 36.5024 43.2498 36.9282 44.2776C37.3539 45.3055 38.0749 46.184 38.9999 46.8021C39.9249 47.4201 41.0125 47.75 42.125 47.75C43.6163 47.7484 45.0461 47.1552 46.1007 46.1007C47.1552 45.0462 47.7484 43.6164 47.75 42.125ZM38.375 42.125H40.25C40.2506 41.6279 40.4483 41.1514 40.7998 40.7999C41.1513 40.4484 41.6279 40.2506 42.125 40.25V38.375C41.1308 38.3762 40.1776 38.7716 39.4746 39.4746C38.7716 40.1776 38.3761 41.1308 38.375 42.125ZM50.5625 6.50003H52.4375C52.4359 5.0087 51.8427 3.57891 50.7882 2.52437C49.7336 1.46984 48.3038 0.876678 46.8125 0.875034V2.75003C47.8067 2.75115 48.7599 3.1466 49.4629 3.84962C50.1659 4.55264 50.5614 5.50582 50.5625 6.50003Z" fill="white"/>
</svg>
