<svg width="60" height="54" viewBox="0 0 60 54" fill="none" xmlns="http://www.w3.org/2000/svg">
<path d="M48.2973 11.1341C48.7314 11.3848 49.2707 11.3848 49.7049 11.1341L53.5091 8.93765C53.9432 8.68705 54.2129 8.22003 54.2129 7.71882C54.2129 7.21749 53.9432 6.75036 53.5091 6.49987L49.7049 4.30343C49.2708 4.05271 48.7315 4.05294 48.2973 4.30343C47.8632 4.55416 47.5935 5.02117 47.5935 5.52239V9.91513C47.5935 10.4163 47.8632 10.8835 48.2973 11.1341ZM49.3501 6.127L52.1071 7.71882L49.3501 9.31075V6.127Z" fill="white"/>
<path d="M56.6825 17.9106H44.4816C43.1917 17.9106 42.1423 18.96 42.1423 20.2499V32.4509C42.1423 33.7409 43.1917 34.7902 44.4816 34.7902H56.6825C57.9724 34.7902 59.0218 33.7409 59.0218 32.4509V20.2499C59.0218 18.96 57.9724 17.9106 56.6825 17.9106ZM57.2652 32.4509C57.2652 32.7722 57.0039 33.0337 56.6825 33.0337H44.4816C44.1604 33.0337 43.8989 32.7723 43.8989 32.4509V20.2499C43.8989 19.9287 44.1603 19.6672 44.4816 19.6672H56.6825C57.0037 19.6672 57.2652 19.9286 57.2652 20.2499V32.4509Z" fill="white"/>
<path d="M50.5822 23.7454C48.404 23.7454 46.6321 25.5174 46.6321 27.6955C46.6321 29.8737 48.4041 31.6457 50.5822 31.6457C52.7602 31.6457 54.5323 29.8736 54.5323 27.6955C54.5323 25.5174 52.7602 23.7454 50.5822 23.7454ZM50.5822 29.8892C49.3727 29.8892 48.3887 28.9052 48.3887 27.6956C48.3887 26.4861 49.3727 25.5021 50.5822 25.5021C51.7916 25.5021 52.7757 26.4861 52.7757 27.6956C52.7757 28.905 51.7916 29.8892 50.5822 29.8892Z" fill="white"/>
<path d="M54.7469 21.0251C54.2618 21.0251 53.8687 21.4183 53.8687 21.9034V22.6667C53.8687 23.1519 54.2618 23.545 54.7469 23.545C55.2321 23.545 55.6252 23.1519 55.6252 22.6667V21.9034C55.6252 21.4184 55.2321 21.0251 54.7469 21.0251Z" fill="white"/>
<path d="M49.5408 46.7609C49.47 46.8316 49.3547 46.8319 49.284 46.7609L48.8009 46.2778C48.4578 45.935 47.9018 45.935 47.5588 46.2778C47.2158 46.621 47.2158 47.177 47.5588 47.52L48.0418 48.003C48.7974 48.7586 50.027 48.7585 50.7829 48.003L53.2955 45.4903C54.051 44.7346 54.051 43.505 53.2954 42.7492L52.8124 42.2663C52.469 41.9233 51.9129 41.9233 51.5703 42.2664C51.2273 42.6095 51.2273 43.1655 51.5705 43.5084L52.0534 43.9912C52.1241 44.0621 52.1241 44.1774 52.0534 44.2482L49.5408 46.7609Z" fill="white"/>
<path d="M30.5036 11.2283C30.5034 11.2283 30.5034 11.2283 30.5036 11.2283C30.0184 11.2283 29.6251 11.6214 29.6251 12.1064V12.5641L24.5151 14.6896C24.4899 14.227 24.1081 13.8593 23.6394 13.8593C23.6393 13.8593 23.6393 13.8593 23.6393 13.8593C23.1542 13.8593 22.761 14.2524 22.761 14.7375V15.4191L18.815 17.0605C12.6274 17.0599 15.4571 17.0601 8.92204 17.0595C8.92181 17.0595 8.92192 17.0595 8.92169 17.0595C7.49628 17.0595 6.33647 18.2194 6.33623 19.6449V19.8751L5.30067 19.875V19.8191C5.30067 19.334 4.90754 18.9407 4.42249 18.9407C4.42238 18.9407 4.42238 18.9407 4.42238 18.9407C3.93732 18.9407 3.54408 19.3339 3.54408 19.8189V19.9491C1.54357 20.3199 0.000234238 22.0749 2.66861e-08 24.2194C-0.000234185 26.3621 1.54123 28.1188 3.54315 28.4902V28.6203C3.54315 29.1055 3.93627 29.4987 4.42132 29.4987H4.42144C4.90649 29.4987 5.29973 29.1056 5.29973 28.6206V28.5646L6.3353 28.5647V28.7949C6.33518 29.4855 6.60405 30.1349 7.09238 30.6233C7.58071 31.1118 8.23007 31.3808 8.92064 31.3808H9.15543L9.15532 34.2099C9.15532 34.695 9.54844 35.0882 10.0336 35.0882C10.5187 35.0882 10.9119 34.6951 10.9119 34.2099L10.912 31.3809L15.1859 31.3812L15.1857 34.1577C15.1857 34.1984 15.1618 34.2359 15.125 34.253L13.8486 34.8511C13.1975 35.156 12.7767 35.8175 12.7765 36.5368L12.7761 40.35C12.7761 40.7173 12.4788 41.0149 12.1109 41.0149H11.5765C11.2089 41.0149 10.9113 40.7175 10.9113 40.3496L10.9115 38.1164C10.9115 37.6313 10.5184 37.238 10.0334 37.238C10.0333 37.238 10.0333 37.238 10.0333 37.238C9.54821 37.238 9.15497 37.6311 9.15497 38.1162L9.15473 40.3494C9.1545 41.6879 10.2376 42.7713 11.5764 42.7715H12.1111C13.4493 42.7715 14.5327 41.6884 14.5327 40.3501L14.533 36.5371C14.533 36.4965 14.5568 36.4592 14.5937 36.4419L15.8704 35.8438C16.5214 35.5387 16.942 34.8771 16.9423 34.158L16.9425 31.3815L18.8132 31.3816L22.7592 33.0236V33.7052C22.7592 34.1903 23.1524 34.5836 23.6374 34.5836H23.6375C24.1063 34.5836 24.4882 34.2161 24.5134 33.7537L29.6229 35.8799V36.3374C29.6229 36.8225 30.016 37.2158 30.5011 37.2158H30.5012C30.9863 37.2158 31.3795 36.8226 31.3795 36.3376L31.3796 35.2945C31.3796 35.2944 31.3796 35.2943 31.3796 35.2942L31.3806 24.2221L31.3816 12.1066C31.3817 11.6215 30.9885 11.2283 30.5036 11.2283ZM11.249 18.8164C11.6813 18.8164 14.5624 18.8166 14.8483 18.8166L14.8482 20.0659C14.8482 20.4247 14.5577 20.7154 14.1987 20.7154H14.1986C14.1986 20.7154 14.1986 20.7154 14.1985 20.7154L11.8984 20.7152C11.5395 20.7152 11.2488 20.4248 11.2488 20.0655L11.249 18.8164ZM1.75658 24.2195C1.75658 23.0619 2.51063 22.0945 3.54373 21.7593L3.54326 26.68C2.51016 26.3446 1.75635 25.3772 1.75658 24.2195ZM5.29985 26.808L5.30032 21.6316H6.33576C6.33565 22.4215 6.33541 25.9959 6.33541 26.808H5.29985ZM8.33452 29.3814C8.17807 29.2248 8.09188 29.0166 8.09188 28.7952C8.09211 26.5163 8.09247 21.9121 8.0927 19.6451C8.0927 19.4236 8.17901 19.2155 8.33558 19.0589C8.49215 18.9023 8.70024 18.8161 8.92157 18.8161H8.92169H9.49246L9.49235 20.0653C9.49211 21.3921 10.5715 22.4716 11.8984 22.4718L14.1985 22.4719H14.1988C15.5287 22.4719 16.6049 21.3957 16.6049 20.066L16.605 18.8167L18.1118 18.8168C18.1117 20.1248 18.111 28.3395 18.1109 29.6249L8.92087 29.624C8.69931 29.6242 8.49109 29.538 8.33452 29.3814ZM19.8673 29.9176C19.8674 28.6195 19.8683 19.8328 19.8684 18.5248L22.7606 17.3217L22.7594 31.1212L19.8673 29.9176ZM24.5159 31.8521L24.5173 16.591L29.6249 14.4666L29.6241 24.219L29.6233 33.9773L24.5159 31.8521Z" fill="white"/>
<path d="M38.4458 23.3416H34.9188C34.4337 23.3416 34.0405 23.7347 34.0405 24.2198C34.0405 24.705 34.4337 25.0981 34.9188 25.0981H38.4458C38.931 25.0981 39.3241 24.705 39.3241 24.2198C39.3241 23.7347 38.9309 23.3416 38.4458 23.3416Z" fill="white"/>
<path d="M34.4818 16.8018L36.9757 14.3078C37.3187 13.9648 37.3187 13.4087 36.9756 13.0658C36.6327 12.7229 36.0765 12.7228 35.7335 13.0659L33.2397 15.5599C32.8967 15.9029 32.8967 16.459 33.2398 16.8019C33.5827 17.1448 34.1387 17.1449 34.4818 16.8018Z" fill="white"/>
<path d="M34.4139 31.6097C34.0708 31.2668 33.5148 31.2668 33.1718 31.6097C32.8288 31.9528 32.8288 32.5088 33.1718 32.8518L35.6658 35.3458C36.009 35.6888 36.5649 35.6887 36.9079 35.3458C37.2509 35.0027 37.2509 34.4467 36.9079 34.1037L34.4139 31.6097Z" fill="white"/>
<path d="M50.5821 36.8904C45.9506 36.8904 42.1826 40.6584 42.1826 45.2899C42.1826 46.5892 42.486 47.8757 43.0628 49.0337L42.2126 52.2065C42.1314 52.5097 42.218 52.833 42.4398 53.0549C42.6618 53.2769 42.9853 53.3634 43.2882 53.2821L46.2522 52.488C47.5575 53.2753 49.0459 53.6894 50.5821 53.6894C52.4801 53.6894 54.2724 53.0697 55.7652 51.8972C56.1466 51.5976 56.213 51.0455 55.9135 50.664C55.6138 50.2826 55.0619 50.2165 54.6802 50.5157C53.4999 51.4427 52.0828 51.9328 50.5823 51.9328C49.2593 51.9328 47.9816 51.5447 46.887 50.8104C46.6763 50.6691 46.4152 50.6257 46.1703 50.6914L44.3032 51.1917L44.8484 49.1566C44.9073 48.9368 44.8786 48.7027 44.7683 48.5036C44.226 47.5249 43.9393 46.4135 43.9393 45.2899C43.9393 41.6271 46.9193 38.647 50.5823 38.647C54.2452 38.647 57.2252 41.627 57.2252 45.2899C57.2252 46.2561 57.0207 47.1898 56.6175 48.065C56.4146 48.5055 56.6071 49.0272 57.0477 49.2302C57.4881 49.4332 58.0099 49.2406 58.2129 48.8C58.7231 47.6927 58.9818 46.5117 58.9818 45.2898C58.9815 40.6583 55.2135 36.8904 50.5821 36.8904Z" fill="white"/>
<path d="M57.3929 0.310664H49.2663C48.7811 0.310664 48.388 0.703787 48.388 1.18896C48.388 1.67412 48.7811 2.06725 49.2663 2.06725H57.3929C57.8619 2.06725 58.2436 2.44889 58.2436 2.9179V12.5195C58.2436 12.9885 57.8619 13.3702 57.3929 13.3702H43.7717C43.3025 13.3702 42.9209 12.9885 42.9209 12.5195V2.91779C42.9209 2.44878 43.3025 2.06713 43.7717 2.06713H45.7546C46.2398 2.06713 46.6329 1.67401 46.6329 1.18884C46.6329 0.70367 46.2398 0.310547 45.7546 0.310547H43.7717C42.3341 0.310547 41.1643 1.48008 41.1643 2.91779V12.5194C41.1643 13.957 42.334 15.1266 43.7717 15.1266H57.3928C58.8304 15.1266 60 13.9571 60 12.5194V2.91779C60 1.4802 58.8305 0.310664 57.3929 0.310664Z" fill="white"/>
</svg>
